<svg width="195" height="59" viewBox="0 0 195 59" fill="none" xmlns="http://www.w3.org/2000/svg">
<path d="M39.7802 3.07861V12.9119L39.0302 12.7661C39.0302 9.76611 37.426 7.66195 34.2177 6.45361C31.0093 5.24528 26.1239 4.64111 19.5718 4.64111V26.1619C22.2073 26.0682 24.2645 25.9224 25.7385 25.7244C27.2229 25.5161 28.3479 25.089 29.1135 24.4328C29.8895 23.7661 30.3687 23.0474 30.551 22.2661C30.7437 21.4901 30.8427 20.3078 30.8427 18.7244L31.6552 18.5786V35.1828L30.8427 35.0369C30.8427 32.9432 30.6187 31.4432 30.176 30.5369C29.7437 29.6203 28.7437 28.9432 27.176 28.4953C25.6031 28.0369 23.0718 27.7609 19.5718 27.6619V35.4536C19.5718 41.9276 19.8635 45.7036 20.4468 46.7869C20.7229 47.3859 21.0302 47.9484 21.3635 48.4744C21.7073 48.9901 22.2229 49.339 22.9052 49.5161C24.3635 49.8911 26.1395 50.0786 28.2385 50.0786L28.3843 50.8911H7.88434L8.03017 50.0786C10.2906 50.0786 11.952 49.6411 13.0093 48.7661C14.1448 47.8078 14.7177 43.3703 14.7177 35.4536V18.5161C14.7177 13.6411 14.5614 10.3078 14.2593 8.51611C13.9677 6.71403 13.551 5.57861 13.0093 5.12028C11.952 4.26091 10.2906 3.82861 8.03017 3.82861L7.88434 3.07861H39.7802Z" fill="#006045"/>
<mask id="mask0_1239_430" style="mask-type:luminance" maskUnits="userSpaceOnUse" x="6" y="1" width="15" height="55">
<path d="M6.14062 1.4165H20.8021V55.1613H6.14062V1.4165Z" fill="white"/>
</mask>
<g mask="url(#mask0_1239_430)">
<path d="M6.14062 1.4165H20.75V55.1248H6.14062V1.4165Z" fill="white"/>
</g>
<mask id="mask1_1239_430" style="mask-type:luminance" maskUnits="userSpaceOnUse" x="14" y="47" width="16" height="10">
<path d="M14.3802 47.125H29.0469V56.625H14.3802V47.125Z" fill="white"/>
</mask>
<g mask="url(#mask1_1239_430)">
<path d="M14.3802 47.125H28.9896V56.5781H14.3802V47.125Z" fill="white"/>
</g>
<mask id="mask2_1239_430" style="mask-type:luminance" maskUnits="userSpaceOnUse" x="4" y="0" width="26" height="56">
<path d="M4 0H29.3333V56H4V0Z" fill="white"/>
</mask>
<g mask="url(#mask2_1239_430)">
<mask id="mask3_1239_430" style="mask-type:luminance" maskUnits="userSpaceOnUse" x="2" y="-1" width="30" height="58">
<path d="M2.94794 1.5L27.4636 -0.28125L31.4531 54.6406L6.93752 56.4219L2.94794 1.5Z" fill="white"/>
</mask>
<g mask="url(#mask3_1239_430)">
<mask id="mask4_1239_430" style="mask-type:luminance" maskUnits="userSpaceOnUse" x="2" y="-1" width="30" height="58">
<path d="M2.94794 1.5L27.4636 -0.28125L31.4531 54.6406L6.93752 56.4219L2.94794 1.5Z" fill="white"/>
</mask>
<g mask="url(#mask4_1239_430)">
<path fill-rule="evenodd" clip-rule="evenodd" d="M19.875 13.5C19.849 13.4792 19.8334 13.4531 19.823 13.4167C19.8021 13.3073 19.7865 13.1927 19.7761 13.0833C19.4167 11.8437 18.8438 10.6719 18.5105 9.42187C17.9792 7.43229 17.9948 5.15104 18.4688 3.15104C18.625 2.47917 18.7605 1.8125 18.974 1.15104C19.0053 1.04687 19.0417 0.854166 19.0886 0.692708C19.125 0.557292 19.1823 0.4375 19.2448 0.369792C19.2865 0.328125 19.3282 0.328125 19.3542 0.328125C19.3959 0.328125 19.4271 0.343749 19.4532 0.385416C19.4636 0.395833 19.4792 0.421874 19.4792 0.453125C19.4792 0.473958 19.4792 0.510416 19.4792 0.53125C19.4844 0.651041 19.4896 0.776041 19.4896 0.895833C19.5 1.19792 19.5261 1.5 19.573 1.79687C19.7136 2.65625 19.8594 3.54687 20.1303 4.38021C20.6928 6.14583 20.8178 8.07292 20.5365 9.90104C20.4063 10.7448 20.1146 11.5156 20.0365 12.3281V12.3333C20.2396 13.2656 20.3959 14.2083 20.4896 15.1615C20.573 16.0573 20.599 16.9531 20.5365 17.8542C20.5157 18.1823 20.4792 18.5052 20.4323 18.8281C20.6615 18.3542 20.9063 17.8906 21.1563 17.4531C21.4896 16.875 21.8073 16.25 22.2448 15.7448C22.9584 14.9063 23.8021 14.2865 24.6459 13.6042C25.0053 13.3177 25.4115 13.0938 25.7813 12.8177C26.1875 12.5208 26.573 12.1771 26.9844 11.875C27.2344 11.6875 27.4792 11.4948 27.724 11.3021C27.7969 11.2448 27.8698 11.1927 27.9375 11.125C27.9688 11.099 28 11.0365 28.0313 11.0104C28.0573 10.9844 28.0834 10.9687 28.1042 10.9635C28.1459 10.9479 28.1823 10.9583 28.2136 10.9792C28.2396 10.9948 28.2709 11.026 28.2813 11.0833C28.2969 11.1719 28.2657 11.2917 28.2084 11.4115C28.1459 11.5469 28.0469 11.6979 28 11.7917C27.7344 12.349 27.5053 12.9219 27.2188 13.4635C26.4323 14.9219 25.5 16.2917 24.1146 17.2552C23.2813 17.8333 22.3959 18.2031 21.6303 18.7083C20.948 19.1615 20.3646 19.724 20.0469 20.6563C19.6667 21.974 19.1146 23.1719 18.474 24.3958C17.323 26.5885 15.8803 28.8646 14.6719 32.1094C14.2448 33.2448 13.9271 34.3958 13.7032 35.5469C13.7188 35.5104 13.7396 35.4792 13.7553 35.4427C14.2865 34.3906 15.1823 32.9792 16.1094 32.2396C17.2084 31.3646 18.948 30.6406 20.1771 29.8958C20.6823 29.5938 21.1042 29.2292 21.5313 28.8333C21.625 28.7448 21.7396 28.599 21.8646 28.4792C21.9636 28.3854 22.0625 28.3073 22.1615 28.2708C22.224 28.2448 22.2605 28.2604 22.2865 28.276C22.3282 28.2969 22.3542 28.3333 22.3542 28.401C22.3594 28.4167 22.349 28.4479 22.3334 28.4792C22.3125 28.5156 22.2605 28.5781 22.2448 28.6146C22.1875 28.7135 22.1303 28.8125 22.0782 28.9167C21.9167 29.2188 21.7969 29.5417 21.6615 29.8542C21.6042 29.974 21.5417 30.099 21.4896 30.2135C21.5053 30.2396 21.5053 30.2708 21.4844 30.2917C21.448 30.3333 21.4167 30.375 21.3803 30.4167C21.1355 30.875 20.875 31.3021 20.573 31.724C20.5886 31.7448 20.5938 31.7813 20.5678 31.8021C20.4167 31.9948 20.2553 32.1823 20.0886 32.3594C20.0313 32.4271 19.974 32.5 19.9167 32.5677C18.8178 33.9063 17.4532 34.6927 15.9792 35.5573C15.4688 35.8542 14.9167 36.125 14.4428 36.474C13.9844 36.8125 13.599 37.2188 13.4063 37.8021C13.3907 37.849 13.375 37.9063 13.3594 37.9531C13.1407 40.724 13.4167 43.5156 14.0573 46.3021C14.0573 44.0052 15.3178 41.4271 16.5834 39.6927C16.6094 39.6563 16.6355 39.6198 16.6615 39.5833C17.1667 38.8854 17.7553 38.2969 18.4219 37.75C18.4636 37.7135 18.5261 37.6406 18.5938 37.5781C18.6563 37.526 18.7136 37.4792 18.7761 37.4583C18.8282 37.4427 18.875 37.4375 18.9219 37.4531C18.9688 37.4688 19.0157 37.5 19.0469 37.5625C19.4532 38.3385 19.349 39.5365 18.974 40.7865C18.4323 42.625 17.3178 44.5729 16.5209 45.3958C16.1563 45.776 15.6146 46.0729 15.1615 46.4271C14.7865 46.7135 14.4688 47.0365 14.375 47.4896C15.1355 49.9115 16.9063 53.6146 18.4948 55.0885C18.573 55.1615 18.5782 55.2865 18.5053 55.3646C18.4428 55.4271 18.3542 55.4427 18.2813 55.4115C18.2709 55.4219 18.2553 55.4219 18.2448 55.4271C18.2605 55.4427 18.2709 55.4531 18.2865 55.4688C18.3178 55.4948 18.3125 55.5365 18.2917 55.5625C18.2657 55.5885 18.224 55.5885 18.198 55.5625C18.0157 55.3906 17.8594 55.1979 17.7032 55.0052C17.6875 54.9844 17.6875 54.9583 17.698 54.9375C17.5834 54.8073 17.474 54.6719 17.375 54.5365C17.3542 54.5052 17.3594 54.4635 17.3855 54.4479C17.3907 54.4479 17.3907 54.4427 17.3959 54.4427C16.7761 53.6198 16.1511 52.5625 15.599 51.4583C15.5678 51.4479 15.5417 51.4219 15.5313 51.3854C15.4636 51.2135 15.3959 51.0469 15.323 50.8854C15.2969 50.8438 15.2813 50.7969 15.2553 50.75C15.1407 50.5156 15.0157 50.2813 14.875 50.0573C14.6615 49.9531 14.4219 49.9063 14.1823 49.875C13.9167 49.8385 13.6459 49.8177 13.3907 49.75C11.3698 49.2344 9.7865 48.5521 8.32296 47C8.1615 46.8177 7.26046 45.7083 7.0313 45.1667C6.974 45.0469 6.95317 44.9479 6.96359 44.8802C6.96879 44.8229 6.99484 44.7813 7.0313 44.75C7.09379 44.6979 7.18234 44.6667 7.30734 44.6563C7.44275 44.6458 7.63025 44.6719 7.83859 44.7135C8.599 44.8854 9.68755 45.3698 9.92713 45.4896C11.6719 46.3698 13.3542 47.5573 14.5521 49.1094L14.5469 49.099C14.4063 48.75 14.2709 48.3958 14.1511 48.0365C14.0521 47.7448 13.9584 47.4479 13.8698 47.1458C13.8438 47.0521 13.8178 46.9531 13.7917 46.8542C13.7761 46.8021 13.7709 46.7552 13.7553 46.7031C13.7396 46.6458 13.7292 46.5885 13.7136 46.526C13.6719 46.3438 13.6303 46.1615 13.5886 45.9792C13.5 45.5573 13.4167 45.1302 13.3386 44.7031C13.3073 44.4948 13.2709 44.2865 13.2344 44.0833C13.2188 44.026 13.198 43.9687 13.1771 43.9063C13.1667 43.9063 13.1615 43.901 13.1511 43.8958C9.66671 42.5833 6.76567 39.9323 5.86984 36.2344C5.81775 36.0208 5.44275 34.6458 5.32817 33.9896C5.29171 33.7969 5.2865 33.6615 5.30213 33.6042C5.32296 33.5365 5.36463 33.5 5.4115 33.4896C5.45317 33.474 5.49484 33.474 5.54692 33.5C5.58338 33.5156 5.63025 33.5469 5.67713 33.5885C5.724 33.6302 5.77088 33.6771 5.80734 33.7031C6.05213 33.8542 6.27609 34.0208 6.5365 34.1458C7.33859 34.5365 8.00005 34.9531 8.6615 35.5677C11.0678 37.8021 13.0625 42.776 13.0625 42.776C12.7396 39.8385 12.875 36.901 13.6355 34.0156C13.6355 34.0104 13.6355 34.0104 13.6355 34.0104C13.5782 33.1302 13.1823 32.3021 12.6823 31.5156C12.1719 30.7187 11.5521 29.9583 11.0625 29.2604C10.1928 28.0208 9.59379 26.6406 9.32296 25.151C9.17713 24.3281 9.13546 23.5 9.15109 22.6615C9.1563 22.4063 9.17192 22.1615 9.18234 21.9115C9.18234 21.8073 9.19275 21.7031 9.19796 21.599C9.19796 21.5937 9.18755 21.5208 9.18755 21.4896C9.18755 21.4531 9.19796 21.4271 9.20838 21.4063C9.22921 21.375 9.25525 21.3542 9.2813 21.3438C9.31255 21.3333 9.349 21.3333 9.39588 21.3542C9.45317 21.3802 9.51046 21.4479 9.56255 21.5365C9.63546 21.6771 9.69796 21.8958 9.75005 21.9844C9.974 22.3958 10.2553 22.8177 10.5573 23.1875C11.1094 23.8646 11.6563 24.4427 12.0365 25.2448C12.8959 27.0937 12.948 29.026 13.2709 31.0052C13.3959 31.7813 13.6511 32.5208 13.849 33.2813C13.9844 32.8333 14.1407 32.3802 14.3021 31.9323C15.1771 29.5833 16.1771 27.7396 17.099 26.0677C17.099 26.0521 17.099 26.0365 17.099 26.0208C17.3073 24.9375 17.0678 23.9375 16.6615 22.9792C16.25 22 15.6719 21.0625 15.2084 20.1302C14.5573 18.8021 14.3438 17.0521 14.5782 15.6042C14.6511 15.1667 14.7917 14.3125 15.0105 13.9063C15.0157 13.8698 15.0209 13.8437 15.0261 13.8073C15.0313 13.7708 15.0678 13.75 15.099 13.75C15.1355 13.7604 15.1563 13.7917 15.1563 13.8281C15.1875 13.8281 15.2136 13.849 15.2396 13.875C15.25 13.8906 15.2657 13.9115 15.2709 13.9531C15.2813 13.9844 15.2813 14.0521 15.2917 14.0885C15.3178 14.1875 15.3594 14.2865 15.3907 14.3802C15.4948 14.6667 15.625 14.9271 15.7605 15.1979C16.1771 16.0156 16.7657 16.7188 17.0261 17.6094C17.5 19.2396 17.1928 20.8385 17.1928 22.4948C17.1928 23.4583 17.4532 24.3906 17.4948 25.3438C17.7136 24.9531 17.9271 24.5625 18.125 24.1771C19.8386 20.9115 20.9063 17.8333 19.5573 12L19.875 13.5ZM14.4688 49.5729L14.4636 49.5781C14.474 49.5833 14.4792 49.5833 14.4896 49.5885L14.4688 49.5729ZM8.19796 46.4271C8.35421 46.6198 8.48442 46.776 8.5365 46.8333C9.95838 48.3438 11.5053 49.0052 13.474 49.5156C13.5469 49.5313 13.625 49.5469 13.7084 49.5625C13.5886 49.5208 13.4636 49.474 13.349 49.4271C12.9323 49.276 12.5209 49.1354 12.1146 48.9479C10.9584 48.4115 9.75005 47.7917 8.76046 46.974C8.55734 46.8073 8.38025 46.6094 8.19796 46.4271ZM7.81775 45.651C8.13025 45.9583 8.474 46.2396 8.82296 46.5C9.64067 47.1094 10.5053 47.6146 11.3907 48.1198C12.2396 48.6042 13.1511 49.151 14.099 49.4688C13.8334 49.349 13.5782 49.1927 13.323 49.0677C12.8855 48.8542 12.448 48.651 12.0261 48.4063C11.4844 48.0885 10.9636 47.7083 10.4375 47.3542C9.81255 46.9375 9.19275 46.5 8.55734 46.0938C8.31775 45.9479 8.05213 45.8177 7.81775 45.651ZM14.323 49.25C13.1511 47.75 11.5157 46.6042 9.81775 45.7448C9.58859 45.625 8.5313 45.1563 7.79171 44.9896C7.61463 44.9479 7.45317 44.9271 7.33859 44.9323C7.32817 44.9323 7.31775 44.9375 7.30734 44.9375C7.45317 44.9635 7.58859 45.0313 7.73442 45.0677C7.89588 45.1094 8.07296 45.125 8.23442 45.1771C8.67713 45.3281 9.08859 45.599 9.50525 45.8125C9.82296 45.9844 10.1511 46.125 10.4584 46.3125C10.974 46.625 11.448 47 11.9323 47.3542C12.4688 47.7552 13.0157 48.1458 13.5417 48.5625C13.8125 48.7865 14.0625 49.0208 14.323 49.25ZM7.35421 45.0781C7.38025 45.1094 7.4115 45.1354 7.43755 45.1563C7.68755 45.2865 7.95838 45.3854 8.20838 45.5156C8.45838 45.6458 8.69275 45.8073 8.93755 45.9427C9.20317 46.099 9.48442 46.2292 9.75005 46.3854C10.323 46.7396 10.875 47.151 11.4375 47.526C12.2865 48.0833 13.1511 48.625 14.0209 49.151C13.8386 48.9896 13.6563 48.8229 13.4584 48.6667C12.9375 48.2552 12.3907 47.8646 11.8542 47.4635C11.375 47.1094 10.9063 46.7344 10.3907 46.4323C10.0886 46.2448 9.75525 46.1042 9.44275 45.9375C9.04171 45.7188 8.63025 45.4531 8.19275 45.3073C8.0365 45.2552 7.86463 45.2396 7.70838 45.1979C7.58338 45.1667 7.46879 45.1146 7.35421 45.0781ZM7.79171 45.4688C8.04692 45.6667 8.35942 45.8125 8.63025 45.9844C9.26567 46.3958 9.88546 46.8333 10.5105 47.25C11.0313 47.599 11.5469 47.9792 12.0938 48.2969C12.5105 48.5365 12.9428 48.7344 13.375 48.9427C13.5105 49.0104 13.6407 49.0833 13.7709 49.151C12.9584 48.6615 12.1511 48.151 11.3594 47.6354C10.7969 47.2656 10.2553 46.8594 9.67192 46.5052C9.4115 46.349 9.13546 46.2135 8.86984 46.0625C8.62505 45.9219 8.39067 45.7604 8.14067 45.6406C8.0313 45.5781 7.9063 45.5208 7.79171 45.4688ZM7.83859 45.8594C7.96879 46 8.099 46.1458 8.23963 46.276C8.43755 46.4792 8.63025 46.6979 8.849 46.875C9.82817 47.6823 11.0261 48.2969 12.1719 48.8281C12.4532 48.9583 12.7344 49.0625 13.0209 49.1719C12.4323 48.8854 11.8594 48.5521 11.323 48.2448C10.4375 47.7344 9.56255 47.224 8.74484 46.6146C8.43234 46.375 8.12504 46.125 7.83859 45.8594ZM18.6459 38.0729C18.2813 38.6458 18.0157 39.3177 17.6771 39.8802C16.4063 42.0208 15.2917 44.2813 14.5469 46.6667C15.5521 44.8698 16.4115 42.9583 17.3178 41.1146C17.823 40.099 18.4011 39.1667 18.6459 38.0729ZM17.0209 39.5833C16.9792 39.6354 16.9375 39.6927 16.8959 39.75C16.8698 39.7865 16.8438 39.8229 16.8178 39.8594C15.5365 41.6146 14.25 44.2604 14.349 46.5677C14.5 45.75 14.7917 44.9635 15.0365 44.1615C15.5105 42.625 16.099 40.974 17.0209 39.5833ZM18.849 37.7708C18.8438 37.7813 18.8386 37.7865 18.8282 37.7969C18.625 39.0417 17.9844 40.0521 17.4323 41.1667C16.6146 42.8177 15.849 44.5208 14.974 46.1458C16.2709 44.2813 17.5625 42.2917 18.2553 40.1354C18.5105 39.3594 18.8021 38.5938 18.849 37.7708ZM18.4896 38.0729C16.7344 39.625 15.823 42.0313 15.1667 44.2031C14.9688 44.8594 14.7344 45.5 14.5678 46.1615C15.3125 43.9375 16.3698 41.8229 17.5678 39.8125C17.8907 39.2656 18.1511 38.6302 18.4896 38.0729ZM19.073 38.9063C19 39.3802 18.8438 39.8646 18.7344 40.2708C18.4167 41.5156 17.2292 43.7969 16.3907 44.8229C16.0834 45.1927 15.7709 45.5521 15.4688 45.9167C15.7917 45.6979 16.1146 45.4844 16.3594 45.2292C17.125 44.4271 18.2136 42.5208 18.75 40.724C18.9323 40.0833 19.0573 39.4635 19.073 38.9063ZM18.948 38.1406C18.849 38.8385 18.6042 39.5052 18.3855 40.1771C17.7292 42.2135 16.5469 44.1094 15.323 45.8802C15.6407 45.4948 15.9688 45.1302 16.2813 44.7396C17.1094 43.7292 18.2865 41.474 18.599 40.2448C18.6928 39.8854 18.8282 39.4792 18.9063 39.0625C18.9688 38.75 18.9948 38.4323 18.948 38.1406ZM12.9792 43.5521V43.5573L12.9948 43.5625L12.9792 43.5521ZM6.31775 36.8177C6.4115 37.1094 6.51567 37.3854 6.63025 37.6615C7.56775 39.2083 9.32817 40.7344 10.5105 41.7865C11.2605 42.4427 11.8542 43.1094 12.8021 43.4427C10.9584 42.401 9.68755 40.6667 8.27088 39.1406C7.55734 38.3802 6.82817 37.6823 6.31775 36.8177ZM5.849 35.0573C5.98442 35.5833 6.11984 36.0781 6.14588 36.1979V36.2031C6.64067 37.3281 7.52088 38.1458 8.36984 39.0521C9.66671 40.4427 10.8334 42.0104 12.4323 43.0625C11.7865 42.4948 11.1303 41.9167 10.5573 41.2917C9.48442 40.125 8.60421 38.7969 7.6563 37.5313C6.96879 36.6198 6.32817 35.9531 5.849 35.0573ZM6.42192 34.401C7.57296 35.5573 8.38025 37.0208 9.2865 38.3802C10.3803 40.0208 11.6042 41.526 12.8855 43.026C12.8646 42.9688 12.8386 42.9115 12.8178 42.849C12.6563 42.7135 12.5105 42.5417 12.3646 42.349C12 41.8542 11.6823 41.2396 11.4115 40.8802C10.5209 39.6979 9.6615 38.526 8.88546 37.2656C8.33338 36.3698 7.89588 35.4896 7.14588 34.7865C6.92192 34.651 6.68234 34.526 6.43755 34.4063C6.42713 34.401 6.42713 34.4063 6.42192 34.401ZM5.83338 34.0469C7.77088 36.9219 9.56254 39.8906 12.0573 42.3229C12.2761 42.5313 12.4688 42.7656 12.6719 42.9844C11.4271 41.526 10.2448 40.0521 9.17192 38.4531C8.1615 36.9375 7.27609 35.2917 5.89588 34.0885C5.87504 34.0729 5.85421 34.0625 5.83338 34.0469ZM7.00005 38.4323C8.02088 40.349 9.6563 41.8594 11.5834 42.9063C11.1875 42.6042 10.8282 42.2448 10.4219 41.8854C9.4115 40.9844 7.97921 39.7448 7.00005 38.4323ZM5.599 33.9375C5.61463 34.026 5.63025 34.125 5.6563 34.2448C5.66671 34.3021 5.67713 34.3594 5.69275 34.4167C6.17713 35.625 6.93234 36.3594 7.75525 37.4583C8.69796 38.7188 9.57817 40.0417 10.6407 41.2031C11.1615 41.7656 11.7396 42.2865 12.3178 42.8021C12.2032 42.6719 12.0834 42.5417 11.9584 42.4167C9.32817 39.8438 7.46879 36.6771 5.40109 33.6458L5.599 33.9375ZM7.599 35.0729C8.1563 35.7083 8.5365 36.4479 8.99484 37.2031C9.77088 38.4635 10.6303 39.6302 11.5157 40.8073C11.7865 41.1719 12.1042 41.7813 12.4688 42.276C12.5365 42.3646 12.599 42.4479 12.6719 42.5313C12.2136 41.6719 11.6615 40.8698 11.1615 40.0417C10.1823 38.3854 9.224 36.7396 7.93755 35.3125C7.82817 35.2292 7.71359 35.1458 7.599 35.0729ZM8.57296 35.8542C9.60942 37.1302 10.4271 38.5417 11.2813 39.9635C11.6407 40.5573 12.0209 41.1406 12.3803 41.7396C11.4688 39.5573 10.25 37.4375 8.57296 35.8542ZM21.3803 29.5833C20.5782 30.3333 19.5469 30.8125 18.6563 31.4479C17.0053 32.6198 15.5469 34.0625 14.3959 35.7344C14.1771 36.0573 13.9011 36.3646 13.6719 36.6979C13.6667 36.7187 13.6511 36.7344 13.6459 36.7552C13.6823 36.7031 13.724 36.6563 13.7657 36.6042C14.0678 36.2188 14.3855 35.8594 14.7032 35.4896C15.9688 34.0417 17.3542 32.776 18.8855 31.6094C19.7084 30.9792 20.7032 30.401 21.3803 29.5833ZM16.9792 31.9583C16.7292 32.1146 16.4948 32.2813 16.2865 32.4427C15.3855 33.1615 14.5157 34.5313 14 35.5573C13.8698 35.8125 13.7448 36.0781 13.625 36.3542C13.8646 35.9063 14.1459 35.4792 14.4115 35.0521C15.1094 33.9531 15.9636 32.8438 16.9792 31.9583ZM20.3907 31.5521C20.0625 31.8906 19.724 32.2188 19.3698 32.5208C18.4948 33.2917 17.474 33.9323 16.5261 34.6042C15.9375 35.026 15.3698 35.4583 14.823 35.9323C15.125 35.7396 15.4323 35.5469 15.7292 35.3333C16.4375 34.8125 17.1094 34.2396 17.8386 33.7396C18.3334 33.4063 18.8803 33.1615 19.375 32.8177C19.5 32.6875 19.6198 32.5521 19.7344 32.4063C19.9688 32.125 20.1875 31.8385 20.3907 31.5521ZM21.1355 30.3542C21.0261 30.4948 20.9115 30.6302 20.7917 30.7448C20.4375 31.1094 20.0313 31.4219 19.6511 31.7552C18.5261 32.75 17.3438 33.6719 16.1563 34.5885C15.6928 34.9531 15.2553 35.3333 14.8386 35.7344C15.3542 35.2969 15.8855 34.8906 16.4428 34.4948C17.3907 33.8177 18.4011 33.1771 19.2813 32.4167C19.8282 31.9375 20.3438 31.4167 20.8334 30.8698C20.9375 30.7083 21.0365 30.5313 21.1355 30.3542ZM21.3438 29.8177C20.6719 30.5573 19.7396 31.1146 18.9688 31.7083C17.4428 32.8698 16.0625 34.1198 14.8073 35.5729C14.7709 35.6146 14.7344 35.6563 14.698 35.6927C15.1355 35.2656 15.5886 34.8646 16.0782 34.4844C17.2657 33.5625 18.4428 32.651 19.5678 31.6563C19.9428 31.3229 20.3542 31.0156 20.7032 30.6563C20.9323 30.4167 21.1511 30.125 21.3438 29.8177ZM18.6407 31.0365C18.3594 31.1823 18.0678 31.3333 17.7865 31.4844C16.4636 32.4271 15.3803 33.7865 14.5365 35.1198C14.4792 35.2135 14.4219 35.3021 14.3594 35.3906C14.3959 35.3385 14.4271 35.2917 14.4584 35.2448C15.573 33.6406 17.0417 32.1875 18.6407 31.0365ZM18.948 33.2396C18.599 33.4427 18.2448 33.625 17.9115 33.849C17.3073 34.2604 16.7396 34.7292 16.1615 35.1667C17.1667 34.5781 18.1146 34.0052 18.948 33.2396ZM21.6563 29.099C21.3594 29.3698 21.0573 29.6302 20.7344 29.8594L20.7396 29.8646C20.7553 29.8958 20.75 29.9375 20.7136 29.9531C20.1407 30.3021 19.5365 30.5729 18.9792 30.9583C17.7188 31.8281 16.5313 32.8958 15.5261 34.0833C16.4323 33.0521 17.4636 32.1302 18.5886 31.3333C19.5782 30.6354 20.7448 30.1198 21.5678 29.2031C21.5938 29.1719 21.6198 29.1354 21.6563 29.099ZM9.5313 22.151C9.57817 22.3802 9.63025 22.6146 9.71879 22.8333C9.83859 23.1458 10.0365 23.4167 10.1355 23.7344C10.724 25.5938 11.3386 27.4635 12.0782 29.2656C12.3021 29.8073 12.5573 30.3333 12.8178 30.8646C12.8542 30.9323 12.8907 31.0104 12.9323 31.0833C12.7761 30.7188 12.6928 30.3281 12.573 29.9583C12.3178 29.1719 12.0521 28.401 11.7969 27.6146C11.3803 26.3229 10.9584 25.0104 10.4115 23.7656C10.198 23.2813 9.89588 22.8229 9.64588 22.3594C9.60421 22.2813 9.56775 22.2135 9.5313 22.151ZM10.3907 23.4271C10.4375 23.5208 10.4844 23.6094 10.5261 23.7083C11.073 24.9583 11.4948 26.276 11.9167 27.5729C12.1719 28.3542 12.4375 29.1302 12.6928 29.9115C12.7553 30.099 12.8073 30.2969 12.8646 30.4896C12.7813 30.1042 12.7084 29.7135 12.6094 29.3333C12.349 28.375 12.0105 27.4323 11.7448 26.474C11.5261 25.6771 11.349 24.7188 10.8803 24.0104C10.7188 23.8177 10.5573 23.625 10.3907 23.4271ZM9.65109 25.3802C9.93234 26.7344 10.4948 28 11.2917 29.1406C11.5938 29.5677 11.9375 30.0104 12.2761 30.474C12.1355 30.2083 11.9896 29.9427 11.8438 29.6823C11.3646 28.8646 10.9011 28.0417 10.4688 27.1927C10.1563 26.599 9.87504 26 9.65109 25.3802ZM9.44275 22.375L9.43755 22.4583C9.44796 22.6667 9.46879 22.8802 9.50525 23.0938C9.58859 23.5781 9.77609 24.0104 9.92713 24.474C10.1303 25.0625 10.3021 25.6719 10.5365 26.2552C10.7344 26.7448 10.9844 27.2031 11.1875 27.6875C11.5157 28.4896 11.8803 29.2656 12.2709 30.0313C12.1563 29.7917 12.0573 29.5573 11.9532 29.3125C11.2136 27.5052 10.599 25.6302 10.0053 23.776C9.9063 23.4635 9.70838 23.1875 9.59379 22.8854C9.52609 22.7135 9.47921 22.5417 9.44275 22.3698V22.375ZM11.323 24.5729C11.5678 25.1771 11.7084 25.8437 11.8698 26.4323C12.1355 27.3958 12.474 28.3333 12.7344 29.2969C12.7657 29.4167 12.7969 29.5365 12.823 29.6615C12.6407 28.2031 12.4584 26.776 11.8073 25.3958C11.6667 25.0938 11.5 24.8281 11.323 24.5729ZM9.43234 23.3906C9.44275 23.7396 9.46359 24.0885 9.50005 24.4375C9.724 25.3802 10.1303 26.2604 10.5834 27.1302C10.9428 27.8281 11.3178 28.5052 11.7032 29.1875C11.4792 28.7135 11.2657 28.2292 11.0625 27.7396C10.8594 27.2552 10.6094 26.7917 10.4115 26.3021C10.1771 25.7188 10 25.1146 9.80213 24.5156C9.67713 24.1354 9.5313 23.776 9.43234 23.3906ZM14.7605 16.8802C14.7657 17.9688 15.0053 19.1146 15.4584 20.0417C15.8125 20.7604 16.2344 21.474 16.599 22.2135C16.5573 22.099 16.5157 21.9844 16.4688 21.8802C15.8021 20.3802 15.0313 18.7917 14.7969 17.151C14.7865 17.0625 14.7709 16.9688 14.7605 16.8802ZM16.2344 16.5208C16.3334 16.9531 16.3594 17.4115 16.4063 17.8646C16.4584 18.474 16.5521 19.0833 16.5678 19.6927C16.5782 20.0313 16.5782 20.3802 16.5938 20.724C16.6771 21.125 16.7605 21.526 16.849 21.9219C16.849 21.9167 16.8438 21.9063 16.8438 21.901C16.7917 21.224 16.8438 20.5521 16.8386 19.8698C16.8386 18.8802 16.7553 17.8542 16.4532 16.9063C16.3803 16.776 16.3073 16.6458 16.2344 16.5208ZM16.7865 17.724C16.9219 18.4323 16.9688 19.1563 16.9688 19.8646C16.9688 20.4896 16.9271 21.1146 16.9636 21.7396C17.0209 20.3906 17.1771 19.0625 16.7865 17.724ZM14.9219 15.25C14.9011 15.3854 14.8803 15.5052 14.8594 15.6146C14.8386 16.1198 14.849 16.6198 14.9219 17.1354C15.1563 18.7448 15.9011 20.2917 16.5573 21.7656C16.5469 21.6875 16.5313 21.6094 16.5209 21.526C16.4271 21.2083 16.3178 20.8958 16.2188 20.5781C15.9115 19.6458 15.5157 18.7396 15.2813 17.7865C15.0834 16.9583 14.9375 16.1042 14.9219 15.25ZM15.0886 14.5104L15.0834 14.526C14.9948 15.6042 15.1511 16.7031 15.4115 17.75C15.6407 18.6979 16.0365 19.6042 16.3438 20.5313C16.3803 20.6563 16.4219 20.7813 16.4688 20.9063C16.4636 20.8542 16.4584 20.8021 16.4636 20.7448C16.198 19.4896 15.9428 18.2344 15.6667 16.9844C15.5782 16.599 15.5053 16.2031 15.4063 15.8177C15.2917 15.3854 15.1563 14.9479 15.0938 14.5L15.0886 14.5104ZM15.2761 14.7917C15.349 15.125 15.448 15.4531 15.5313 15.7813C15.6303 16.1719 15.7032 16.5625 15.7917 16.9531C16.0157 17.9687 16.224 18.9844 16.4375 20C16.4323 19.8958 16.4323 19.7969 16.4271 19.6927C16.4167 19.0885 16.323 18.4792 16.2657 17.8698C16.2136 17.2552 16.1823 16.625 15.948 16.0625C15.8021 15.8281 15.6615 15.5937 15.5365 15.3437C15.448 15.1615 15.3594 14.9844 15.2761 14.7917ZM20.7813 18.974C20.7709 18.9844 20.7657 18.9896 20.7553 19C20.724 19.0521 20.6875 19.1094 20.6511 19.1615C20.6459 19.1667 20.6407 19.1719 20.6355 19.1771C20.6355 19.1875 20.6303 19.1979 20.625 19.2031C20.6875 19.1354 20.7553 19.0729 20.823 19.0052C20.8125 19 20.8021 19 20.7917 18.9948C20.7865 18.9896 20.7813 18.9844 20.7813 18.974ZM24.224 14.2917C23.5938 14.7865 22.9844 15.2969 22.4532 15.9167C22.0313 16.4115 21.7188 17.0208 21.3959 17.5833C21.1875 17.9427 20.9896 18.3125 20.7969 18.6927L20.8125 18.6719C21.0053 18.3906 21.2084 18.1198 21.4063 17.849C21.5313 17.6771 21.6615 17.5 21.7865 17.3229C22.3855 16.4792 22.9167 15.6615 23.6198 14.901C23.8125 14.6979 24.0157 14.4948 24.224 14.2917ZM27.2761 12.7813C26.5417 14.0417 25.5678 15.151 24.448 16.1042C23.75 16.6927 23.0313 17.2708 22.3125 17.8333C22.0678 18.026 21.8125 18.2187 21.5834 18.4323C21.7084 18.349 21.8438 18.2708 21.974 18.1979C22.099 18.1094 22.2188 18.026 22.3386 17.9375C23.3125 17.2708 24.2188 16.5052 25.073 15.7031C25.5365 15.2708 26.0417 14.8594 26.4167 14.349C26.6198 14.0156 26.8125 13.6771 27 13.3385C27.0938 13.151 27.1875 12.9688 27.2761 12.7813ZM26.8282 13.25C25.948 14.3385 24.849 15.2396 23.7605 16.151C23.1042 16.6979 22.4896 17.3281 21.8907 17.9479C21.8021 18.0469 21.7084 18.1354 21.6146 18.2292C21.8125 18.0573 22.0209 17.8958 22.2344 17.7344C22.948 17.1719 23.6719 16.5938 24.3698 16.0052C25.3073 15.2031 26.1459 14.276 26.8282 13.25ZM27.3594 12.2708C27.0625 12.5833 26.75 12.8698 26.4428 13.1719C25.6407 13.9583 24.8698 14.7552 24.0417 15.5156C23.474 16.0365 22.8907 16.5781 22.375 17.151C22.1042 17.4583 21.8386 17.7656 21.573 18.0781C21.6459 18 21.7188 17.9271 21.7917 17.8542C22.3907 17.2344 23.0053 16.599 23.6771 16.0417C25.0417 14.9115 26.4323 13.7813 27.3594 12.2708ZM27.5521 11.8698C27.25 12.0729 26.9375 12.2708 26.6511 12.5104C25.7032 13.3073 24.875 14.2292 24.0105 15.1146C23.1407 16.0052 22.2813 16.9375 21.5209 17.9323L21.5105 17.9531C21.7657 17.651 22.0209 17.3542 22.2813 17.0573C22.8021 16.4792 23.3855 15.9427 23.9532 15.4115C24.7813 14.651 25.5521 13.8594 26.349 13.0729C26.7553 12.6823 27.1823 12.2969 27.5521 11.8698ZM25.8907 15.125C25.6511 15.3542 25.4011 15.5729 25.1615 15.7969C24.4532 16.4531 23.7188 17.0885 22.9428 17.6615C23.2865 17.474 23.6355 17.2708 23.974 17.0365C24.7396 16.5052 25.3542 15.8542 25.8907 15.125ZM25.6719 13.2187C25.5625 13.2917 25.4584 13.3646 25.349 13.4375C24.7917 13.9219 24.2084 14.4635 23.724 14.9896C23.2813 15.4688 22.9011 15.9792 22.5365 16.5C22.9844 15.9948 23.448 15.5052 23.9219 15.0208C24.5053 14.4219 25.073 13.8073 25.6719 13.2187ZM20.1615 5.52604C20.2136 6.18229 20.224 6.84375 20.1928 7.50521C20.1459 8.51042 20.0573 9.48958 19.948 10.4948C19.9011 10.9271 19.8542 11.3698 19.8542 11.8073C19.9792 11.1667 20.1771 10.5313 20.2813 9.85937C20.5 8.4375 20.4688 6.94792 20.1615 5.52604ZM18.448 4.85417C18.2917 6.35937 18.3855 7.93229 18.7657 9.35417C18.948 10.0365 19.198 10.6927 19.448 11.3542C19.3021 10.724 19.1771 10.0937 19.0573 9.46354C18.7553 7.92187 18.474 6.40104 18.448 4.85417ZM18.6198 3.71354C18.625 3.71875 18.6198 3.72396 18.6198 3.72917C18.4688 5.66667 18.8178 7.53125 19.1875 9.4375C19.3021 10.0469 19.4271 10.6458 19.5625 11.25C19.5625 11.1823 19.5678 11.1146 19.573 11.0521C19.4688 10.4792 19.3334 9.91146 19.2396 9.34896C19.0053 7.96354 18.8594 6.57813 18.724 5.18229C18.6719 4.65104 18.625 4.17708 18.6198 3.71354ZM19.8646 4.40625C19.9584 5.65104 19.9375 6.91146 19.8438 8.14063C19.7969 8.80729 19.8542 9.54687 19.7917 10.2187C19.7709 10.3802 19.7553 10.5417 19.7344 10.6927C19.7448 10.8021 19.75 10.9115 19.7657 11.0156C19.7813 10.8385 19.7969 10.6667 19.8178 10.4844C19.9271 9.47917 20.0209 8.5 20.0625 7.5C20.1094 6.51562 20.073 5.54687 19.9167 4.57292C19.9063 4.53646 19.8959 4.5 19.8855 4.46875C19.8803 4.44792 19.8698 4.42187 19.8646 4.40625ZM19.224 1.28125C18.9584 3.10937 19.0782 5.00521 19.25 6.83333C19.3386 7.83333 19.4271 8.82292 19.5573 9.81771C19.5521 9.75521 19.5573 9.70312 19.5521 9.64583C19.5 8.72396 19.4636 7.8125 19.448 6.89063C19.4323 5.21354 19.3125 2.97917 19.224 1.28125ZM19.4167 2.43229C19.4896 3.91146 19.5678 5.57292 19.5834 6.89063C19.5938 7.8125 19.6303 8.71875 19.6823 9.63542C19.6875 9.67187 19.6875 9.71354 19.6928 9.75C19.7084 9.21354 19.6823 8.64583 19.7188 8.125C19.8334 6.65104 19.8386 5.125 19.6615 3.63542C19.5625 3.24479 19.4844 2.83854 19.4167 2.43229ZM19.0053 2.03125C18.9219 2.36979 18.849 2.71354 18.7657 3.05208C18.724 3.76042 18.7813 4.39583 18.8542 5.16146C18.9896 6.53125 19.1303 7.89063 19.3542 9.24479C19.2605 8.44271 19.1875 7.64583 19.1146 6.83854C18.974 5.26562 18.8646 3.625 19.0053 2.03125Z" fill="#006045"/>
</g>
</g>
</g>
<path d="M61.077 32.8957V32.6769C60.2176 32.6769 59.8114 32.5311 59.8114 31.703V25.9946H61.9416C63.7957 25.9946 64.0509 26.729 64.0509 29.0207H64.2905V22.9478H64.0509C64.0509 24.9998 63.7957 25.7342 61.9416 25.755H59.8114V19.7498H61.978C63.9051 19.7863 65.1916 19.9321 66.1655 22.4321H66.4051L65.4312 19.5103H56.5093V19.7498C57.3895 19.7498 57.7749 19.8957 57.7749 20.7446V31.6665C57.7749 32.5103 57.3895 32.6561 56.5093 32.6561V32.8957H61.077Z" fill="#006045"/>
<path d="M69.2614 19.7502C70.2145 19.7502 70.803 19.8595 70.803 20.5939V31.6668C70.803 32.5314 70.3811 32.6564 69.5009 32.6564V32.896H73.9072V32.6564C73.0426 32.6564 72.6364 32.5314 72.6364 31.6668V18.8491L69.2614 19.5106V19.7502Z" fill="#006045"/>
<path d="M76.6737 28.2865C76.6737 31.224 78.3456 33.1146 81.356 33.1146C84.2206 33.1146 86.0383 31.224 86.0383 28.2865C86.0383 25.5729 84.4237 23.625 81.356 23.625C78.455 23.625 76.6737 25.5729 76.6737 28.2865ZM81.1737 23.8646C83.1893 23.8646 84.0175 26.3958 84.0175 28.474C84.0175 30.5469 83.2831 32.875 81.5383 32.875C79.5175 32.875 78.6945 30.125 78.6945 28.1042C78.6945 26.0833 79.4289 23.8646 81.1737 23.8646Z" fill="#006045"/>
<path d="M89.1701 24.5052V24.7448C90.1232 24.7448 90.6909 25.0573 90.6909 25.7917V31.6667C90.6909 32.5104 90.2691 32.6562 89.3889 32.6562V32.8958H93.8316V32.6562C92.9878 32.6562 92.5659 32.5312 92.5295 31.7396V26.6354C93.0816 25.0208 93.9409 24.8021 94.7118 24.8021C95.9045 24.8021 96.6597 25.1458 97.1545 26.4531H97.3941L96.8784 24.0469C96.8784 24.0469 96.3107 23.625 95.2274 23.625C93.5399 23.625 92.967 24.9844 92.6024 25.7708H92.5295V23.8438L89.1701 24.5052Z" fill="#006045"/>
<path d="M100.435 30.25C100.435 31.9062 101.534 33.1146 103.445 33.1146C104.529 33.1146 105.815 32.6198 106.513 31.3333H106.586C106.586 32.5833 107.102 33.1146 108.622 33.1146C110.274 33.1146 110.716 32.1406 110.716 31.1146H110.477C110.477 31.7188 110.164 32.6406 109.305 32.6406C108.586 32.6406 108.419 32.0677 108.419 31.1146V26.6562C108.419 24.875 106.878 23.625 104.383 23.625C102.695 23.625 100.763 24.6354 100.763 27.0417H101.003C101.003 25.6458 102.07 24.5417 104.034 24.5417C105.961 24.5417 106.586 25.6458 106.586 26.6562V27.7396C106.107 27.4062 105.43 27.151 104.253 27.151C103.003 27.151 100.435 27.6979 100.435 30.25ZM104.289 32.1042C102.951 32.1042 102.268 31.1719 102.268 29.6823C102.268 28.6354 102.841 27.5 104.253 27.4062C105.024 27.349 105.997 27.5885 106.586 28.0677V29.7552C106.586 31.3177 105.482 32.1042 104.289 32.1042Z" fill="#006045"/>
<path d="M113.115 19.7502C114.068 19.7502 114.657 19.8595 114.657 20.5939V31.6668C114.657 32.5314 114.235 32.6564 113.354 32.6564V32.896H117.761V32.6564C116.896 32.6564 116.49 32.5314 116.49 31.6668V18.8491L113.115 19.5106V19.7502Z" fill="#006045"/>
<path d="M131.904 32.8957V32.6769C131.045 32.6769 130.639 32.5311 130.639 31.703V25.9946H132.769C134.623 25.9946 134.878 26.729 134.878 29.0207H135.118V22.9478H134.878C134.878 24.9998 134.623 25.7342 132.769 25.755H130.639V19.7498H132.805C134.732 19.7863 136.019 19.9321 136.993 22.4321H137.232L136.258 19.5103H127.337V19.7498C128.217 19.7498 128.602 19.8957 128.602 20.7446V31.6665C128.602 32.5103 128.217 32.6561 127.337 32.6561V32.8957H131.904Z" fill="#006045"/>
<path d="M140.089 24.745C141.042 24.745 141.609 25.021 141.609 25.7554V31.6668C141.609 32.5106 141.188 32.6564 140.307 32.6564V32.896H144.75V32.6564C143.906 32.6564 143.448 32.5314 143.448 31.6668V23.8439L140.089 24.5054V24.745ZM142.531 22.172C143.078 22.172 143.537 21.7345 143.537 21.1825C143.537 20.6304 143.078 20.1929 142.531 20.1929C141.979 20.1929 141.537 20.6304 141.537 21.1825C141.537 21.7345 141.979 22.172 142.531 22.172Z" fill="#006045"/>
<path d="M152.181 33.1146C155.082 33.1146 156.113 31.0052 156.165 28.875H155.926C155.926 29.8125 155.431 32.1042 152.9 32.1042C150.493 32.1042 149.353 30.25 149.353 27.6823C149.353 27.5156 149.353 27.349 149.374 27.1875H155.926C155.926 25.2396 154.624 23.625 152.405 23.625C149.337 23.625 147.519 25.9948 147.519 28.4167C147.519 31.1354 149.097 33.1146 152.181 33.1146ZM149.41 26.9479C149.65 25.1667 150.749 23.9896 152.217 23.9896C154.144 23.9896 154.384 25.6094 154.384 26.9479H149.41Z" fill="#006045"/>
<path d="M159.447 32.8958C159.447 32.6562 159.556 32.4896 159.759 32.4531C160.494 32.3073 160.879 33.1146 162.64 33.1146C164.494 33.1146 165.744 32.0156 165.759 30.4896C165.759 27.0208 160.879 27.9583 160.916 25.2604C160.916 24.4896 161.468 23.974 162.291 23.974C163.853 23.974 164.77 25.276 164.77 26.8385H165.025L165.009 23.8438H164.77C164.77 24.0833 164.676 24.3021 164.421 24.3021C163.853 24.3021 163.301 23.625 162.108 23.625C160.384 23.625 159.244 24.6354 159.244 26.2292C159.265 29.5 164.093 28.3958 164.093 31.2604C164.093 32.125 163.483 32.75 162.239 32.75C161.119 32.75 159.447 31.9427 159.447 29.0938H159.207V32.8958H159.447Z" fill="#006045"/>
<path d="M168.526 24.0832H169.885V30.9321C169.885 32.4894 170.401 33.1353 172.036 33.1353C173.521 33.1353 174.016 32.0155 174.016 31.1144H173.781C173.781 31.7394 173.448 32.6196 172.625 32.6196C171.87 32.6196 171.724 32.0884 171.724 31.1144V24.0832H173.687V23.8436H171.724V20.6665H171.484C171.245 22.0467 170.51 23.5884 168.526 23.8436V24.0832Z" fill="#006045"/>
<path d="M176.603 30.25C176.603 31.9062 177.702 33.1146 179.613 33.1146C180.697 33.1146 181.983 32.6198 182.681 31.3333H182.754C182.754 32.5833 183.27 33.1146 184.79 33.1146C186.441 33.1146 186.884 32.1406 186.884 31.1146H186.645C186.645 31.7188 186.332 32.6406 185.473 32.6406C184.754 32.6406 184.587 32.0677 184.587 31.1146V26.6562C184.587 24.875 183.046 23.625 180.551 23.625C178.863 23.625 176.931 24.6354 176.931 27.0417H177.171C177.171 25.6458 178.238 24.5417 180.202 24.5417C182.129 24.5417 182.754 25.6458 182.754 26.6562V27.7396C182.275 27.4062 181.598 27.151 180.421 27.151C179.171 27.151 176.603 27.6979 176.603 30.25ZM180.457 32.1042C179.118 32.1042 178.436 31.1719 178.436 29.6823C178.436 28.6354 179.009 27.5 180.421 27.4062C181.191 27.349 182.165 27.5885 182.754 28.0677V29.7552C182.754 31.3177 181.65 32.1042 180.457 32.1042Z" fill="#006045"/>
<path d="M51.2345 20.377V27.2728L50.6928 27.1686C50.6928 25.0749 49.5678 23.6009 47.3178 22.752C45.0678 21.9082 41.6511 21.4811 37.0678 21.4811V36.5436C38.9116 36.4915 40.3491 36.3926 41.3803 36.252C42.422 36.1009 43.2136 35.7936 43.7553 35.3353C44.297 34.877 44.6303 34.377 44.7553 33.8353C44.8907 33.2936 44.9636 32.4603 44.9636 31.3353L45.5261 31.252V42.877L44.9636 42.7728C44.9636 41.304 44.8074 40.252 44.5053 39.627C44.198 38.9915 43.4949 38.5124 42.4011 38.1895C41.3022 37.8717 39.5261 37.679 37.0678 37.6061V43.0645C37.0678 47.5957 37.2657 50.2415 37.672 51.002C37.8647 51.4186 38.0782 51.8145 38.3178 52.1895C38.5678 52.554 38.9272 52.7936 39.4011 52.9186C40.4272 53.1686 41.672 53.2936 43.1303 53.2936L43.2345 53.877H28.8803L28.9636 53.2936C30.5574 53.2936 31.7241 52.9967 32.4636 52.3978C33.2657 51.7311 33.672 48.6217 33.672 43.0645V31.1895C33.672 27.7728 33.5678 25.4395 33.3595 24.1895C33.1511 22.929 32.8491 22.1374 32.4636 21.8145C31.7241 21.2051 30.5574 20.8978 28.9636 20.8978L28.8803 20.377H51.2345Z" fill="#006045"/>
<path d="M104.657 41.1367H106.397C108.376 41.1367 109.105 40.1888 109.089 39.2461C109.084 38.444 108.407 37.8346 107.079 37.793C108.095 37.6159 108.438 37.1211 108.438 36.5742C108.438 35.9232 107.959 35.5117 106.642 35.5117H104.657V35.6263C104.918 35.7148 104.975 35.9544 104.975 36.5326V40.1159C104.975 40.694 104.918 40.9336 104.657 41.0221V41.1367ZM105.829 40.3086V37.8971H106.397C107.595 37.8971 108.136 38.5794 108.136 39.5482C108.136 40.3971 107.626 41.0065 106.47 41.0065H106.246C105.902 41.0065 105.829 40.8867 105.829 40.3086ZM105.829 37.7721V35.6419H106.157C106.975 35.6419 107.485 36.0482 107.485 36.7565C107.485 37.319 107.131 37.7721 106.543 37.7721H105.829Z" fill="#006045"/>
<path d="M109.645 42.6888C110.379 42.6732 110.942 42.3034 111.556 40.8971L112.785 38.0534C113.02 37.5221 113.244 37.319 113.483 37.2305V37.1211H112.567V37.2305C112.843 37.2982 112.879 37.5221 112.655 38.0586L111.754 40.1419L110.837 38.0534C110.608 37.5221 110.488 37.319 110.749 37.2305V37.1211H109.327V37.2305C109.514 37.319 109.733 37.5221 109.957 38.0586L111.306 41.1784C111.129 41.5482 110.936 41.8607 110.744 42.069C110.327 41.9961 109.884 41.9232 109.65 41.9232C109.275 41.9232 109.056 42.2773 109.056 42.4284C109.056 42.5898 109.311 42.694 109.645 42.6888Z" fill="#006045"/>
<path d="M117.312 41.215C118.239 41.215 119.25 40.6056 119.25 39.5067C119.25 38.5431 118.276 38.1785 117.458 37.866C116.817 37.6108 116.005 37.3192 116.005 36.6056C116.005 35.9702 116.51 35.59 117.151 35.59C117.932 35.59 118.614 36.0431 118.942 36.8713L119.031 36.84L119 35.7931C118.583 35.5848 118.052 35.4546 117.458 35.4546C116.198 35.4546 115.396 36.0744 115.396 37.0692C115.396 38.0015 116.083 38.2775 116.911 38.6213C117.557 38.8765 118.593 39.2463 118.593 40.0379C118.593 40.6942 118.078 41.0483 117.521 41.0483C116.453 41.0483 115.739 40.34 115.401 39.4233L115.297 39.439L115.328 40.6473C115.739 40.9546 116.484 41.215 117.312 41.215Z" fill="#006045"/>
<path d="M122.754 41.1369H123.556V41.0223C123.29 40.9338 123.233 40.6942 123.233 40.116V38.564C123.233 37.5848 122.775 37.064 121.801 37.064C121.071 37.064 120.452 37.4338 120.004 37.9858L120.082 38.0588C120.493 37.5692 120.936 37.3765 121.384 37.3765C121.978 37.3765 122.415 37.6838 122.431 38.4754L121.54 38.7358C120.54 39.0171 119.696 39.3348 119.696 40.1629C119.696 40.84 120.196 41.215 120.79 41.215C121.629 41.215 122.207 40.4233 122.431 39.491V40.814C122.431 41.0223 122.54 41.1369 122.754 41.1369ZM120.446 39.8817C120.446 39.215 121.191 38.9442 121.571 38.84L122.431 38.59V38.7983C122.42 39.5223 121.978 40.6317 121.191 40.6317C120.821 40.6317 120.446 40.4129 120.446 39.8817Z" fill="#006045"/>
<path d="M123.938 41.1369H125.401V41.0223C125.136 40.9338 125.078 40.6942 125.078 40.116V37.9233C125.516 37.5692 125.859 37.3869 126.234 37.3869C126.833 37.3869 127.146 37.8088 127.146 38.5327V40.116C127.146 40.6942 127.089 40.9338 126.823 41.0223V41.1369H128.287V41.0223C128.021 40.9338 127.964 40.6942 127.964 40.116V38.3869C127.964 37.4494 127.464 37.064 126.729 37.064C126.099 37.064 125.521 37.4233 125.078 37.7879V37.1108L125 37.0483L123.938 37.5119V37.6265C124.141 37.715 124.261 37.7931 124.261 38.2671V40.116C124.261 40.6942 124.203 40.9338 123.938 41.0223V41.1369Z" fill="#006045"/>
<path d="M129.84 43.361C131.319 43.361 132.705 42.1891 132.705 41.3141C132.705 40.7412 132.304 40.5902 131.476 40.5433L130.397 40.4756C129.658 40.4391 129.543 40.2777 129.543 40.1266C129.543 39.986 129.642 39.9079 129.778 39.8193C130.028 39.9131 130.309 39.9548 130.559 39.9548C131.215 39.9548 132.179 39.3298 132.179 38.4287C132.179 37.736 131.778 37.3454 131.267 37.1735C131.345 37.0537 131.423 36.96 131.507 36.8923C131.965 37.0485 132.205 37.1214 132.397 37.1214C132.736 37.1214 132.903 36.7725 132.903 36.6318C132.903 36.4756 132.689 36.4131 132.439 36.4131C132.101 36.4131 131.83 36.5173 131.569 36.6995C131.403 36.8141 131.257 36.9652 131.142 37.137C130.96 37.085 130.757 37.0641 130.559 37.0641C129.684 37.0641 128.918 37.7516 128.918 38.5954C128.918 39.21 129.246 39.5693 129.668 39.7725C129.231 40.0277 129.022 40.2464 129.022 40.5433C129.022 40.8818 129.226 41.0641 129.559 41.1631C128.934 41.5381 128.575 41.9548 128.575 42.3923C128.575 43.1475 129.351 43.361 129.84 43.361ZM129.231 41.9964C129.231 41.7308 129.335 41.4495 129.7 41.1943C129.851 41.2152 130.028 41.2412 130.22 41.2516L131.512 41.3141C132.147 41.3454 132.319 41.4964 132.319 41.7568C132.319 42.3193 131.538 42.8818 130.413 42.8818C129.788 42.8818 129.231 42.637 129.231 41.9964ZM129.668 38.1579C129.668 37.6735 129.809 37.2412 130.293 37.1839C131.017 37.111 131.439 38.1735 131.439 38.887C131.439 39.361 131.272 39.8193 130.726 39.8193C129.986 39.8193 129.668 38.8141 129.668 38.1579Z" fill="#006045"/>
<path d="M132.895 41.1367H134.358V41.0221C134.093 40.9336 134.035 40.694 134.035 40.1159V37.9232C134.468 37.569 134.817 37.3867 135.192 37.3867C135.785 37.3867 136.098 37.8086 136.098 38.5326V40.1159C136.098 40.694 136.046 40.9336 135.78 41.0221V41.1367H137.238V41.0221C136.978 40.9336 136.921 40.694 136.921 40.1159V38.3867C136.921 37.4492 136.421 37.0638 135.681 37.0638C135.056 37.0638 134.478 37.4232 134.035 37.7878V34.6992L133.957 34.6367L132.895 35.1003V35.2148C133.093 35.3034 133.218 35.3815 133.218 35.8555V40.1159C133.218 40.694 133.16 40.9336 132.895 41.0221V41.1367Z" fill="#006045"/>
<path d="M137.874 38.0586L139.16 41.1367H139.535L140.712 38.0742C140.92 37.5273 141.082 37.3138 141.311 37.2305V37.1211H140.452V37.2305C140.728 37.2982 140.785 37.5273 140.582 38.0742L139.712 40.319L138.759 38.0586C138.525 37.5273 138.41 37.319 138.676 37.2305V37.1211H137.301V37.2305C137.478 37.3138 137.65 37.5273 137.874 38.0586Z" fill="#006045"/>
<path d="M141.463 41.1369H142.926V41.0223C142.661 40.9338 142.603 40.6942 142.603 40.116V37.1108L142.525 37.0483L141.463 37.5119V37.6265C141.666 37.715 141.786 37.7931 141.786 38.2671V40.116C141.786 40.6942 141.728 40.9338 141.463 41.0223V41.1369ZM141.598 36.2254C141.598 36.5327 141.843 36.7723 142.145 36.7723C142.452 36.7723 142.692 36.5327 142.692 36.2254C142.692 35.9129 142.468 35.6733 142.145 35.6733C141.843 35.6733 141.598 35.9129 141.598 36.2254Z" fill="#006045"/>
<path d="M145.153 41.1367H146.643V41.0221C146.382 40.9336 146.325 40.694 146.325 40.1159V36.5326C146.325 35.9544 146.382 35.7148 146.643 35.6263V35.5117H145.153V35.6263C145.413 35.7148 145.471 35.9544 145.471 36.5326V40.1159C145.471 40.694 145.413 40.9336 145.153 41.0221V41.1367Z" fill="#006045"/>
<path d="M147.246 41.1369H148.709V41.0223C148.444 40.9338 148.386 40.6942 148.386 40.116V37.9233C148.824 37.5692 149.167 37.3869 149.542 37.3869C150.141 37.3869 150.454 37.8088 150.454 38.5327V40.116C150.454 40.6942 150.397 40.9338 150.131 41.0223V41.1369H151.595V41.0223C151.329 40.9338 151.272 40.6942 151.272 40.116V38.3869C151.272 37.4494 150.772 37.064 150.037 37.064C149.407 37.064 148.829 37.4233 148.386 37.7879V37.1108L148.308 37.0483L147.246 37.5119V37.6265C147.449 37.715 147.569 37.7931 147.569 38.2671V40.116C147.569 40.6942 147.511 40.9338 147.246 41.0223V41.1369Z" fill="#006045"/>
<path d="M151.976 41.1369H153.44V41.0223C153.174 40.9338 153.117 40.6942 153.117 40.116V37.9233C153.554 37.5692 153.898 37.3869 154.273 37.3869C154.872 37.3869 155.185 37.8088 155.185 38.5327V40.116C155.185 40.6942 155.127 40.9338 154.862 41.0223V41.1369H156.325V41.0223C156.06 40.9338 156.002 40.6942 156.002 40.116V38.3869C156.002 37.4494 155.502 37.064 154.768 37.064C154.138 37.064 153.56 37.4233 153.117 37.7879V37.1108L153.039 37.0483L151.976 37.5119V37.6265C152.179 37.715 152.299 37.7931 152.299 38.2671V40.116C152.299 40.6942 152.242 40.9338 151.976 41.0223V41.1369Z" fill="#006045"/>
<path d="M158.879 41.215C159.827 41.215 161.014 40.439 161.014 39.064C161.014 37.6473 159.874 37.064 158.879 37.064C157.775 37.064 156.733 37.9285 156.733 39.2306C156.733 40.6004 157.832 41.215 158.879 41.215ZM157.535 38.6317C157.535 37.939 157.769 37.2983 158.467 37.2254C159.504 37.1213 160.202 38.6525 160.202 39.6733C160.202 40.3556 159.947 41.0379 159.16 41.0379C158.098 41.0379 157.535 39.5796 157.535 38.6317Z" fill="#006045"/>
<path d="M161.816 38.0586L163.103 41.1367H163.478L164.655 38.0742C164.863 37.5273 165.024 37.3138 165.254 37.2305V37.1211H164.394V37.2305C164.67 37.2982 164.728 37.5273 164.524 38.0742L163.655 40.319L162.701 38.0586C162.467 37.5273 162.353 37.319 162.618 37.2305V37.1211H161.243V37.2305C161.42 37.3138 161.592 37.5273 161.816 38.0586Z" fill="#006045"/>
<path d="M168.478 41.1369H169.28V41.0223C169.015 40.9338 168.957 40.6942 168.957 40.116V38.564C168.957 37.5848 168.499 37.064 167.525 37.064C166.796 37.064 166.176 37.4338 165.728 37.9858L165.806 38.0588C166.218 37.5692 166.66 37.3765 167.108 37.3765C167.702 37.3765 168.14 37.6838 168.155 38.4754L167.265 38.7358C166.265 39.0171 165.421 39.3348 165.421 40.1629C165.421 40.84 165.921 41.215 166.515 41.215C167.353 41.215 167.931 40.4233 168.155 39.491V40.814C168.155 41.0223 168.265 41.1369 168.478 41.1369ZM166.171 39.8817C166.171 39.215 166.916 38.9442 167.296 38.84L168.155 38.59V38.7983C168.145 39.5223 167.702 40.6317 166.916 40.6317C166.546 40.6317 166.171 40.4129 166.171 39.8817Z" fill="#006045"/>
<path d="M170.949 41.2148C171.433 41.2148 171.839 40.8971 172.266 40.4076L172.188 40.3242C171.922 40.6523 171.646 40.7253 171.469 40.7253C171.115 40.7253 170.933 40.5117 170.933 40.0117V37.2461H172.146L172.178 37.1211H170.933V36.0586H170.803L169.6 37.1211V37.2461H170.115V40.0013C170.115 40.8711 170.402 41.2148 170.949 41.2148Z" fill="#006045"/>
<path d="M172.521 41.1369H173.985V41.0223C173.719 40.9338 173.662 40.6942 173.662 40.116V37.1108L173.584 37.0483L172.521 37.5119V37.6265C172.724 37.715 172.844 37.7931 172.844 38.2671V40.116C172.844 40.6942 172.787 40.9338 172.521 41.0223V41.1369ZM172.657 36.2254C172.657 36.5327 172.902 36.7723 173.204 36.7723C173.511 36.7723 173.75 36.5327 173.75 36.2254C173.75 35.9129 173.527 35.6733 173.204 35.6733C172.902 35.6733 172.657 35.9129 172.657 36.2254Z" fill="#006045"/>
<path d="M176.621 41.215C177.569 41.215 178.756 40.439 178.756 39.064C178.756 37.6473 177.616 37.064 176.621 37.064C175.517 37.064 174.475 37.9285 174.475 39.2306C174.475 40.6004 175.574 41.215 176.621 41.215ZM175.277 38.6317C175.277 37.939 175.511 37.2983 176.209 37.2254C177.246 37.1213 177.944 38.6525 177.944 39.6733C177.944 40.3556 177.689 41.0379 176.902 41.0379C175.84 41.0379 175.277 39.5796 175.277 38.6317Z" fill="#006045"/>
<path d="M179.308 41.1369H180.772V41.0223C180.506 40.9338 180.449 40.6942 180.449 40.116V37.9233C180.886 37.5692 181.23 37.3869 181.605 37.3869C182.204 37.3869 182.516 37.8088 182.516 38.5327V40.116C182.516 40.6942 182.459 40.9338 182.194 41.0223V41.1369H183.657V41.0223C183.391 40.9338 183.334 40.6942 183.334 40.116V38.3869C183.334 37.4494 182.834 37.064 182.1 37.064C181.47 37.064 180.891 37.4233 180.449 37.7879V37.1108L180.371 37.0483L179.308 37.5119V37.6265C179.511 37.715 179.631 37.7931 179.631 38.2671V40.116C179.631 40.6942 179.574 40.9338 179.308 41.0223V41.1369Z" fill="#006045"/>
<path d="M185.591 41.1994C186.758 41.1994 187.143 40.5119 187.143 39.8973C187.143 39.0796 186.435 38.8869 185.794 38.6681C185.07 38.4285 184.669 38.2358 184.669 37.7879C184.669 37.439 184.997 37.1733 185.502 37.1733C186.091 37.1733 186.586 37.5952 186.862 38.1629L186.955 38.1473L186.919 37.2619C186.643 37.1525 186.153 37.064 185.695 37.064C184.601 37.064 184.127 37.6265 184.127 38.2358C184.127 38.9598 184.648 39.1942 185.492 39.4494C186.195 39.6681 186.601 39.866 186.601 40.3817C186.601 40.7515 186.284 41.0796 185.784 41.0744C185.07 41.064 184.492 40.5275 184.143 39.7567L184.065 39.7723L184.143 40.8244C184.45 41.0223 185.002 41.1994 185.591 41.1994Z" fill="#006045"/>
</svg>
