<svg xmlns="http://www.w3.org/2000/svg" xmlns:xlink="http://www.w3.org/1999/xlink" width="195" zoomAndPan="magnify" viewBox="0 0 146.25 44.249999" height="59" preserveAspectRatio="xMidYMid meet" version="1.0"><defs><g/><clipPath id="8ea6d568c2"><path d="M 4.605469 1.0625 L 15.601562 1.0625 L 15.601562 41.371094 L 4.605469 41.371094 Z M 4.605469 1.0625 " clip-rule="nonzero"/></clipPath><clipPath id="bdffbe9eae"><path d="M 10.785156 35.34375 L 21.785156 35.34375 L 21.785156 42.46875 L 10.785156 42.46875 Z M 10.785156 35.34375 " clip-rule="nonzero"/></clipPath><clipPath id="cccdd7e2cf"><path d="M 3 0 L 22 0 L 22 42 L 3 42 Z M 3 0 " clip-rule="nonzero"/></clipPath><clipPath id="e58ab96eac"><path d="M 2.210938 1.125 L 20.597656 -0.210938 L 23.589844 40.980469 L 5.203125 42.316406 Z M 2.210938 1.125 " clip-rule="nonzero"/></clipPath><clipPath id="c03680d9cc"><path d="M 2.210938 1.125 L 20.597656 -0.210938 L 23.589844 40.980469 L 5.203125 42.316406 Z M 2.210938 1.125 " clip-rule="nonzero"/></clipPath></defs><g fill="#ffffff" fill-opacity="1"><g transform="translate(3.350778, 38.168491)"><g><path d="M 26.484375 -35.859375 L 26.484375 -28.484375 L 25.921875 -28.59375 C 25.921875 -30.84375 24.71875 -32.421875 22.3125 -33.328125 C 19.90625 -34.234375 16.242188 -34.6875 11.328125 -34.6875 L 11.328125 -18.546875 C 13.304688 -18.617188 14.847656 -18.726562 15.953125 -18.875 C 17.066406 -19.03125 17.910156 -19.351562 18.484375 -19.84375 C 19.066406 -20.34375 19.425781 -20.882812 19.5625 -21.46875 C 19.707031 -22.050781 19.78125 -22.9375 19.78125 -24.125 L 20.390625 -24.234375 L 20.390625 -11.78125 L 19.78125 -11.890625 C 19.78125 -13.460938 19.613281 -14.585938 19.28125 -15.265625 C 18.957031 -15.953125 18.207031 -16.460938 17.03125 -16.796875 C 15.851562 -17.140625 13.953125 -17.347656 11.328125 -17.421875 L 11.328125 -11.578125 C 11.328125 -6.722656 11.546875 -3.890625 11.984375 -3.078125 C 12.191406 -2.628906 12.421875 -2.207031 12.671875 -1.8125 C 12.929688 -1.425781 13.316406 -1.164062 13.828125 -1.03125 C 14.921875 -0.75 16.253906 -0.609375 17.828125 -0.609375 L 17.9375 0 L 2.5625 0 L 2.671875 -0.609375 C 4.367188 -0.609375 5.613281 -0.9375 6.40625 -1.59375 C 7.257812 -2.3125 7.6875 -5.640625 7.6875 -11.578125 L 7.6875 -24.28125 C 7.6875 -27.9375 7.570312 -30.4375 7.34375 -31.78125 C 7.125 -33.132812 6.8125 -33.984375 6.40625 -34.328125 C 5.613281 -34.972656 4.367188 -35.296875 2.671875 -35.296875 L 2.5625 -35.859375 Z M 26.484375 -35.859375 "/></g></g></g><g clip-path="url(#8ea6d568c2)"><path fill="#417f34" d="M 4.605469 1.0625 L 15.5625 1.0625 L 15.5625 41.34375 L 4.605469 41.34375 Z M 4.605469 1.0625 " fill-opacity="1" fill-rule="nonzero"/></g><g clip-path="url(#bdffbe9eae)"><path fill="#417f34" d="M 10.785156 35.34375 L 21.742188 35.34375 L 21.742188 42.433594 L 10.785156 42.433594 Z M 10.785156 35.34375 " fill-opacity="1" fill-rule="nonzero"/></g><g clip-path="url(#cccdd7e2cf)"><g clip-path="url(#e58ab96eac)"><g clip-path="url(#c03680d9cc)"><path fill="#ffffff" d="M 14.90625 10.125 C 14.886719 10.109375 14.875 10.089844 14.867188 10.0625 C 14.851562 9.980469 14.839844 9.894531 14.832031 9.8125 C 14.5625 8.882812 14.132812 8.003906 13.882812 7.066406 C 13.484375 5.574219 13.496094 3.863281 13.851562 2.363281 C 13.96875 1.859375 14.070312 1.359375 14.230469 0.863281 C 14.253906 0.785156 14.28125 0.640625 14.316406 0.519531 C 14.34375 0.417969 14.386719 0.328125 14.433594 0.277344 C 14.464844 0.246094 14.496094 0.246094 14.515625 0.246094 C 14.546875 0.246094 14.570312 0.257812 14.589844 0.289062 C 14.597656 0.296875 14.609375 0.316406 14.609375 0.339844 C 14.609375 0.355469 14.609375 0.382812 14.609375 0.398438 C 14.613281 0.488281 14.617188 0.582031 14.617188 0.671875 C 14.625 0.898438 14.644531 1.125 14.679688 1.347656 C 14.785156 1.992188 14.894531 2.660156 15.097656 3.285156 C 15.519531 4.609375 15.613281 6.054688 15.402344 7.425781 C 15.304688 8.058594 15.085938 8.636719 15.027344 9.246094 L 15.027344 9.25 C 15.179688 9.949219 15.296875 10.65625 15.367188 11.371094 C 15.429688 12.042969 15.449219 12.714844 15.402344 13.390625 C 15.386719 13.636719 15.359375 13.878906 15.324219 14.121094 C 15.496094 13.765625 15.679688 13.417969 15.867188 13.089844 C 16.117188 12.65625 16.355469 12.1875 16.683594 11.808594 C 17.21875 11.179688 17.851562 10.714844 18.484375 10.203125 C 18.753906 9.988281 19.058594 9.820312 19.335938 9.613281 C 19.640625 9.390625 19.929688 9.132812 20.238281 8.90625 C 20.425781 8.765625 20.609375 8.621094 20.792969 8.476562 C 20.847656 8.433594 20.902344 8.394531 20.953125 8.34375 C 20.976562 8.324219 21 8.277344 21.023438 8.257812 C 21.042969 8.238281 21.0625 8.226562 21.078125 8.222656 C 21.109375 8.210938 21.136719 8.21875 21.160156 8.234375 C 21.179688 8.246094 21.203125 8.269531 21.210938 8.3125 C 21.222656 8.378906 21.199219 8.46875 21.15625 8.558594 C 21.109375 8.660156 21.035156 8.773438 21 8.84375 C 20.800781 9.261719 20.628906 9.691406 20.414062 10.097656 C 19.824219 11.191406 19.125 12.21875 18.085938 12.941406 C 17.460938 13.375 16.796875 13.652344 16.222656 14.03125 C 15.710938 14.371094 15.273438 14.792969 15.035156 15.492188 C 14.75 16.480469 14.335938 17.378906 13.855469 18.296875 C 12.992188 19.941406 11.910156 21.648438 11.003906 24.082031 C 10.683594 24.933594 10.445312 25.796875 10.277344 26.660156 C 10.289062 26.632812 10.304688 26.609375 10.316406 26.582031 C 10.714844 25.792969 11.386719 24.734375 12.082031 24.179688 C 12.90625 23.523438 14.210938 22.980469 15.132812 22.421875 C 15.511719 22.195312 15.828125 21.921875 16.148438 21.625 C 16.21875 21.558594 16.304688 21.449219 16.398438 21.359375 C 16.472656 21.289062 16.546875 21.230469 16.621094 21.203125 C 16.667969 21.183594 16.695312 21.195312 16.714844 21.207031 C 16.746094 21.222656 16.765625 21.25 16.765625 21.300781 C 16.769531 21.3125 16.761719 21.335938 16.75 21.359375 C 16.734375 21.386719 16.695312 21.433594 16.683594 21.460938 C 16.640625 21.535156 16.597656 21.609375 16.558594 21.6875 C 16.4375 21.914062 16.347656 22.15625 16.246094 22.390625 C 16.203125 22.480469 16.15625 22.574219 16.117188 22.660156 C 16.128906 22.679688 16.128906 22.703125 16.113281 22.71875 C 16.085938 22.75 16.0625 22.78125 16.035156 22.8125 C 15.851562 23.15625 15.65625 23.476562 15.429688 23.792969 C 15.441406 23.808594 15.445312 23.835938 15.425781 23.851562 C 15.3125 23.996094 15.191406 24.136719 15.066406 24.269531 C 15.023438 24.320312 14.980469 24.375 14.9375 24.425781 C 14.113281 25.429688 13.089844 26.019531 11.984375 26.667969 C 11.601562 26.890625 11.1875 27.09375 10.832031 27.355469 C 10.488281 27.609375 10.199219 27.914062 10.054688 28.351562 C 10.042969 28.386719 10.03125 28.429688 10.019531 28.464844 C 9.855469 30.542969 10.0625 32.636719 10.542969 34.726562 C 10.542969 33.003906 11.488281 31.070312 12.4375 29.769531 C 12.457031 29.742188 12.476562 29.714844 12.496094 29.6875 C 12.875 29.164062 13.316406 28.722656 13.816406 28.3125 C 13.847656 28.285156 13.894531 28.230469 13.945312 28.183594 C 13.992188 28.144531 14.035156 28.109375 14.082031 28.09375 C 14.121094 28.082031 14.15625 28.078125 14.191406 28.089844 C 14.226562 28.101562 14.261719 28.125 14.285156 28.171875 C 14.589844 28.753906 14.511719 29.652344 14.230469 30.589844 C 13.824219 31.96875 12.988281 33.429688 12.390625 34.046875 C 12.117188 34.332031 11.710938 34.554688 11.371094 34.820312 C 11.089844 35.035156 10.851562 35.277344 10.78125 35.617188 C 11.351562 37.433594 12.679688 40.210938 13.871094 41.316406 C 13.929688 41.371094 13.933594 41.464844 13.878906 41.523438 C 13.832031 41.570312 13.765625 41.582031 13.710938 41.558594 C 13.703125 41.566406 13.691406 41.566406 13.683594 41.570312 C 13.695312 41.582031 13.703125 41.589844 13.714844 41.601562 C 13.738281 41.621094 13.734375 41.652344 13.71875 41.671875 C 13.699219 41.691406 13.667969 41.691406 13.648438 41.671875 C 13.511719 41.542969 13.394531 41.398438 13.277344 41.253906 C 13.265625 41.238281 13.265625 41.21875 13.273438 41.203125 C 13.1875 41.105469 13.105469 41.003906 13.03125 40.902344 C 13.015625 40.878906 13.019531 40.847656 13.039062 40.835938 C 13.042969 40.835938 13.042969 40.832031 13.046875 40.832031 C 12.582031 40.214844 12.113281 39.421875 11.699219 38.59375 C 11.675781 38.585938 11.65625 38.566406 11.648438 38.539062 C 11.597656 38.410156 11.546875 38.285156 11.492188 38.164062 C 11.472656 38.132812 11.460938 38.097656 11.441406 38.0625 C 11.355469 37.886719 11.261719 37.710938 11.15625 37.542969 C 10.996094 37.464844 10.816406 37.429688 10.636719 37.40625 C 10.4375 37.378906 10.234375 37.363281 10.042969 37.3125 C 8.527344 36.925781 7.339844 36.414062 6.242188 35.25 C 6.121094 35.113281 5.445312 34.28125 5.273438 33.875 C 5.230469 33.785156 5.214844 33.710938 5.222656 33.660156 C 5.226562 33.617188 5.246094 33.585938 5.273438 33.5625 C 5.320312 33.523438 5.386719 33.5 5.480469 33.492188 C 5.582031 33.484375 5.722656 33.503906 5.878906 33.535156 C 6.449219 33.664062 7.265625 34.027344 7.445312 34.117188 C 8.753906 34.777344 10.015625 35.667969 10.914062 36.832031 L 10.910156 36.824219 C 10.804688 36.5625 10.703125 36.296875 10.613281 36.027344 C 10.539062 35.808594 10.46875 35.585938 10.402344 35.359375 C 10.382812 35.289062 10.363281 35.214844 10.34375 35.140625 C 10.332031 35.101562 10.328125 35.066406 10.316406 35.027344 C 10.304688 34.984375 10.296875 34.941406 10.285156 34.894531 C 10.253906 34.757812 10.222656 34.621094 10.191406 34.484375 C 10.125 34.167969 10.0625 33.847656 10.003906 33.527344 C 9.980469 33.371094 9.953125 33.214844 9.925781 33.0625 C 9.914062 33.019531 9.898438 32.976562 9.882812 32.929688 C 9.875 32.929688 9.871094 32.925781 9.863281 32.921875 C 7.25 31.9375 5.074219 29.949219 4.402344 27.175781 C 4.363281 27.015625 4.082031 25.984375 3.996094 25.492188 C 3.96875 25.347656 3.964844 25.246094 3.976562 25.203125 C 3.992188 25.152344 4.023438 25.125 4.058594 25.117188 C 4.089844 25.105469 4.121094 25.105469 4.160156 25.125 C 4.1875 25.136719 4.222656 25.160156 4.257812 25.191406 C 4.292969 25.222656 4.328125 25.257812 4.355469 25.277344 C 4.539062 25.390625 4.707031 25.515625 4.902344 25.609375 C 5.503906 25.902344 6 26.214844 6.496094 26.675781 C 8.300781 28.351562 9.796875 32.082031 9.796875 32.082031 C 9.554688 29.878906 9.65625 27.675781 10.226562 25.511719 C 10.226562 25.507812 10.226562 25.507812 10.226562 25.507812 C 10.183594 24.847656 9.886719 24.226562 9.511719 23.636719 C 9.128906 23.039062 8.664062 22.46875 8.296875 21.945312 C 7.644531 21.015625 7.195312 19.980469 6.992188 18.863281 C 6.882812 18.246094 6.851562 17.625 6.863281 16.996094 C 6.867188 16.804688 6.878906 16.621094 6.886719 16.433594 C 6.886719 16.355469 6.894531 16.277344 6.898438 16.199219 C 6.898438 16.195312 6.890625 16.140625 6.890625 16.117188 C 6.890625 16.089844 6.898438 16.070312 6.90625 16.054688 C 6.921875 16.03125 6.941406 16.015625 6.960938 16.007812 C 6.984375 16 7.011719 16 7.046875 16.015625 C 7.089844 16.035156 7.132812 16.085938 7.171875 16.152344 C 7.226562 16.257812 7.273438 16.421875 7.3125 16.488281 C 7.480469 16.796875 7.691406 17.113281 7.917969 17.390625 C 8.332031 17.898438 8.742188 18.332031 9.027344 18.933594 C 9.671875 20.320312 9.710938 21.769531 9.953125 23.253906 C 10.046875 23.835938 10.238281 24.390625 10.386719 24.960938 C 10.488281 24.625 10.605469 24.285156 10.726562 23.949219 C 11.382812 22.1875 12.132812 20.804688 12.824219 19.550781 C 12.824219 19.539062 12.824219 19.527344 12.824219 19.515625 C 12.980469 18.703125 12.800781 17.953125 12.496094 17.234375 C 12.1875 16.5 11.753906 15.796875 11.40625 15.097656 C 10.917969 14.101562 10.757812 12.789062 10.933594 11.703125 C 10.988281 11.375 11.09375 10.734375 11.257812 10.429688 C 11.261719 10.402344 11.265625 10.382812 11.269531 10.355469 C 11.273438 10.328125 11.300781 10.3125 11.324219 10.3125 C 11.351562 10.320312 11.367188 10.34375 11.367188 10.371094 C 11.390625 10.371094 11.410156 10.386719 11.429688 10.40625 C 11.4375 10.417969 11.449219 10.433594 11.453125 10.464844 C 11.460938 10.488281 11.460938 10.539062 11.46875 10.566406 C 11.488281 10.640625 11.519531 10.714844 11.542969 10.785156 C 11.621094 11 11.71875 11.195312 11.820312 11.398438 C 12.132812 12.011719 12.574219 12.539062 12.769531 13.207031 C 13.125 14.429688 12.894531 15.628906 12.894531 16.871094 C 12.894531 17.59375 13.089844 18.292969 13.121094 19.007812 C 13.285156 18.714844 13.445312 18.421875 13.59375 18.132812 C 14.878906 15.683594 15.679688 13.375 14.667969 9 Z M 10.851562 37.179688 C 10.851562 37.179688 10.847656 37.183594 10.847656 37.183594 C 10.855469 37.1875 10.859375 37.1875 10.867188 37.191406 Z M 6.148438 34.820312 C 6.265625 34.964844 6.363281 35.082031 6.402344 35.125 C 7.46875 36.257812 8.628906 36.753906 10.105469 37.136719 C 10.160156 37.148438 10.21875 37.160156 10.28125 37.171875 C 10.191406 37.140625 10.097656 37.105469 10.011719 37.070312 C 9.699219 36.957031 9.390625 36.851562 9.085938 36.710938 C 8.21875 36.308594 7.3125 35.84375 6.570312 35.230469 C 6.417969 35.105469 6.285156 34.957031 6.148438 34.820312 Z M 5.863281 34.238281 C 6.097656 34.46875 6.355469 34.679688 6.617188 34.875 C 7.230469 35.332031 7.878906 35.710938 8.542969 36.089844 C 9.179688 36.453125 9.863281 36.863281 10.574219 37.101562 C 10.375 37.011719 10.183594 36.894531 9.992188 36.800781 C 9.664062 36.640625 9.335938 36.488281 9.019531 36.304688 C 8.613281 36.066406 8.222656 35.78125 7.828125 35.515625 C 7.359375 35.203125 6.894531 34.875 6.417969 34.570312 C 6.238281 34.460938 6.039062 34.363281 5.863281 34.238281 Z M 10.742188 36.9375 C 9.863281 35.8125 8.636719 34.953125 7.363281 34.308594 C 7.191406 34.21875 6.398438 33.867188 5.84375 33.742188 C 5.710938 33.710938 5.589844 33.695312 5.503906 33.699219 C 5.496094 33.699219 5.488281 33.703125 5.480469 33.703125 C 5.589844 33.722656 5.691406 33.773438 5.800781 33.800781 C 5.921875 33.832031 6.054688 33.84375 6.175781 33.882812 C 6.507812 33.996094 6.816406 34.199219 7.128906 34.359375 C 7.367188 34.488281 7.613281 34.59375 7.84375 34.734375 C 8.230469 34.96875 8.585938 35.25 8.949219 35.515625 C 9.351562 35.816406 9.761719 36.109375 10.15625 36.421875 C 10.359375 36.589844 10.546875 36.765625 10.742188 36.9375 Z M 5.515625 33.808594 C 5.535156 33.832031 5.558594 33.851562 5.578125 33.867188 C 5.765625 33.964844 5.96875 34.039062 6.15625 34.136719 C 6.34375 34.234375 6.519531 34.355469 6.703125 34.457031 C 6.902344 34.574219 7.113281 34.671875 7.3125 34.789062 C 7.742188 35.054688 8.15625 35.363281 8.578125 35.644531 C 9.214844 36.0625 9.863281 36.46875 10.515625 36.863281 C 10.378906 36.742188 10.242188 36.617188 10.09375 36.5 C 9.703125 36.191406 9.292969 35.898438 8.890625 35.597656 C 8.53125 35.332031 8.179688 35.050781 7.792969 34.824219 C 7.566406 34.683594 7.316406 34.578125 7.082031 34.453125 C 6.78125 34.289062 6.472656 34.089844 6.144531 33.980469 C 6.027344 33.941406 5.898438 33.929688 5.78125 33.898438 C 5.6875 33.875 5.601562 33.835938 5.515625 33.808594 Z M 5.84375 34.101562 C 6.035156 34.25 6.269531 34.359375 6.472656 34.488281 C 6.949219 34.796875 7.414062 35.125 7.882812 35.4375 C 8.273438 35.699219 8.660156 35.984375 9.070312 36.222656 C 9.382812 36.402344 9.707031 36.550781 10.03125 36.707031 C 10.132812 36.757812 10.230469 36.8125 10.328125 36.863281 C 9.71875 36.496094 9.113281 36.113281 8.519531 35.726562 C 8.097656 35.449219 7.691406 35.144531 7.253906 34.878906 C 7.058594 34.761719 6.851562 34.660156 6.652344 34.546875 C 6.46875 34.441406 6.292969 34.320312 6.105469 34.230469 C 6.023438 34.183594 5.929688 34.140625 5.84375 34.101562 Z M 5.878906 34.394531 C 5.976562 34.5 6.074219 34.609375 6.179688 34.707031 C 6.328125 34.859375 6.472656 35.023438 6.636719 35.15625 C 7.371094 35.761719 8.269531 36.222656 9.128906 36.621094 C 9.339844 36.71875 9.550781 36.796875 9.765625 36.878906 C 9.324219 36.664062 8.894531 36.414062 8.492188 36.183594 C 7.828125 35.800781 7.171875 35.417969 6.558594 34.960938 C 6.324219 34.78125 6.09375 34.59375 5.878906 34.394531 Z M 13.984375 28.554688 C 13.710938 28.984375 13.511719 29.488281 13.257812 29.910156 C 12.304688 31.515625 11.46875 33.210938 10.910156 35 C 11.664062 33.652344 12.308594 32.21875 12.988281 30.835938 C 13.367188 30.074219 13.800781 29.375 13.984375 28.554688 Z M 12.765625 29.6875 C 12.734375 29.726562 12.703125 29.769531 12.671875 29.8125 C 12.652344 29.839844 12.632812 29.867188 12.613281 29.894531 C 11.652344 31.210938 10.6875 33.195312 10.761719 34.925781 C 10.875 34.3125 11.09375 33.722656 11.277344 33.121094 C 11.632812 31.96875 12.074219 30.730469 12.765625 29.6875 Z M 14.136719 28.328125 C 14.132812 28.335938 14.128906 28.339844 14.121094 28.347656 C 13.96875 29.28125 13.488281 30.039062 13.074219 30.875 C 12.460938 32.113281 11.886719 33.390625 11.230469 34.609375 C 12.203125 33.210938 13.171875 31.71875 13.691406 30.101562 C 13.882812 29.519531 14.101562 28.945312 14.136719 28.328125 Z M 13.867188 28.554688 C 12.550781 29.71875 11.867188 31.523438 11.375 33.152344 C 11.226562 33.644531 11.050781 34.125 10.925781 34.621094 C 11.484375 32.953125 12.277344 31.367188 13.175781 29.859375 C 13.417969 29.449219 13.613281 28.972656 13.867188 28.554688 Z M 14.304688 29.179688 C 14.25 29.535156 14.132812 29.898438 14.050781 30.203125 C 13.8125 31.136719 12.921875 32.847656 12.292969 33.617188 C 12.0625 33.894531 11.828125 34.164062 11.601562 34.4375 C 11.84375 34.273438 12.085938 34.113281 12.269531 33.921875 C 12.84375 33.320312 13.660156 31.890625 14.0625 30.542969 C 14.199219 30.0625 14.292969 29.597656 14.304688 29.179688 Z M 14.210938 28.605469 C 14.136719 29.128906 13.953125 29.628906 13.789062 30.132812 C 13.296875 31.660156 12.410156 33.082031 11.492188 34.410156 C 11.730469 34.121094 11.976562 33.847656 12.210938 33.554688 C 12.832031 32.796875 13.714844 31.105469 13.949219 30.183594 C 14.019531 29.914062 14.121094 29.609375 14.179688 29.296875 C 14.226562 29.0625 14.246094 28.824219 14.210938 28.605469 Z M 9.734375 32.664062 C 9.734375 32.664062 9.734375 32.667969 9.734375 32.667969 L 9.746094 32.671875 Z M 4.738281 27.613281 C 4.808594 27.832031 4.886719 28.039062 4.972656 28.246094 C 5.675781 29.40625 6.996094 30.550781 7.882812 31.339844 C 8.445312 31.832031 8.890625 32.332031 9.601562 32.582031 C 8.21875 31.800781 7.265625 30.5 6.203125 29.355469 C 5.667969 28.785156 5.121094 28.261719 4.738281 27.613281 Z M 4.386719 26.292969 C 4.488281 26.6875 4.589844 27.058594 4.609375 27.148438 L 4.609375 27.152344 C 4.980469 27.996094 5.640625 28.609375 6.277344 29.289062 C 7.25 30.332031 8.125 31.507812 9.324219 32.296875 C 8.839844 31.871094 8.347656 31.4375 7.917969 30.96875 C 7.113281 30.09375 6.453125 29.097656 5.742188 28.148438 C 5.226562 27.464844 4.746094 26.964844 4.386719 26.292969 Z M 4.816406 25.800781 C 5.679688 26.667969 6.285156 27.765625 6.964844 28.785156 C 7.785156 30.015625 8.703125 31.144531 9.664062 32.269531 C 9.648438 32.226562 9.628906 32.183594 9.613281 32.136719 C 9.492188 32.035156 9.382812 31.90625 9.273438 31.761719 C 9 31.390625 8.761719 30.929688 8.558594 30.660156 C 7.890625 29.773438 7.246094 28.894531 6.664062 27.949219 C 6.25 27.277344 5.921875 26.617188 5.359375 26.089844 C 5.191406 25.988281 5.011719 25.894531 4.828125 25.804688 C 4.820312 25.800781 4.820312 25.804688 4.816406 25.800781 Z M 4.375 25.535156 C 5.828125 27.691406 7.171875 29.917969 9.042969 31.742188 C 9.207031 31.898438 9.351562 32.074219 9.503906 32.238281 C 8.570312 31.144531 7.683594 30.039062 6.878906 28.839844 C 6.121094 27.703125 5.457031 26.46875 4.421875 25.566406 C 4.40625 25.554688 4.390625 25.546875 4.375 25.535156 Z M 5.25 28.824219 C 6.015625 30.261719 7.242188 31.394531 8.6875 32.179688 C 8.390625 31.953125 8.121094 31.683594 7.816406 31.414062 C 7.058594 30.738281 5.984375 29.808594 5.25 28.824219 Z M 4.199219 25.453125 C 4.210938 25.519531 4.222656 25.59375 4.242188 25.683594 C 4.25 25.726562 4.257812 25.769531 4.269531 25.8125 C 4.632812 26.71875 5.199219 27.269531 5.816406 28.09375 C 6.523438 29.039062 7.183594 30.03125 7.980469 30.902344 C 8.371094 31.324219 8.804688 31.714844 9.238281 32.101562 C 9.152344 32.003906 9.0625 31.90625 8.96875 31.8125 C 6.996094 29.882812 5.601562 27.507812 4.050781 25.234375 Z M 5.699219 26.304688 C 6.117188 26.78125 6.402344 27.335938 6.746094 27.902344 C 7.328125 28.847656 7.972656 29.722656 8.636719 30.605469 C 8.839844 30.878906 9.078125 31.335938 9.351562 31.707031 C 9.402344 31.773438 9.449219 31.835938 9.503906 31.898438 C 9.160156 31.253906 8.746094 30.652344 8.371094 30.03125 C 7.636719 28.789062 6.917969 27.554688 5.953125 26.484375 C 5.871094 26.421875 5.785156 26.359375 5.699219 26.304688 Z M 6.429688 26.890625 C 7.207031 27.847656 7.820312 28.90625 8.460938 29.972656 C 8.730469 30.417969 9.015625 30.855469 9.285156 31.304688 C 8.601562 29.667969 7.6875 28.078125 6.429688 26.890625 Z M 16.035156 22.1875 C 15.433594 22.75 14.660156 23.109375 13.992188 23.585938 C 12.753906 24.464844 11.660156 25.546875 10.796875 26.800781 C 10.632812 27.042969 10.425781 27.273438 10.253906 27.523438 C 10.25 27.539062 10.238281 27.550781 10.234375 27.566406 C 10.261719 27.527344 10.292969 27.492188 10.324219 27.453125 C 10.550781 27.164062 10.789062 26.894531 11.027344 26.617188 C 11.976562 25.53125 13.015625 24.582031 14.164062 23.707031 C 14.78125 23.234375 15.527344 22.800781 16.035156 22.1875 Z M 12.734375 23.96875 C 12.546875 24.085938 12.371094 24.210938 12.214844 24.332031 C 11.539062 24.871094 10.886719 25.898438 10.5 26.667969 C 10.402344 26.859375 10.308594 27.058594 10.21875 27.265625 C 10.398438 26.929688 10.609375 26.609375 10.808594 26.289062 C 11.332031 25.464844 11.972656 24.632812 12.734375 23.96875 Z M 15.292969 23.664062 C 15.046875 23.917969 14.792969 24.164062 14.527344 24.390625 C 13.871094 24.96875 13.105469 25.449219 12.394531 25.953125 C 11.953125 26.269531 11.527344 26.59375 11.117188 26.949219 C 11.34375 26.804688 11.574219 26.660156 11.796875 26.5 C 12.328125 26.109375 12.832031 25.679688 13.378906 25.304688 C 13.75 25.054688 14.160156 24.871094 14.53125 24.613281 C 14.625 24.515625 14.714844 24.414062 14.800781 24.304688 C 14.976562 24.09375 15.140625 23.878906 15.292969 23.664062 Z M 15.851562 22.765625 C 15.769531 22.871094 15.683594 22.972656 15.59375 23.058594 C 15.328125 23.332031 15.023438 23.566406 14.738281 23.816406 C 13.894531 24.5625 13.007812 25.253906 12.117188 25.941406 C 11.769531 26.214844 11.441406 26.5 11.128906 26.800781 C 11.515625 26.472656 11.914062 26.167969 12.332031 25.871094 C 13.042969 25.363281 13.800781 24.882812 14.460938 24.3125 C 14.871094 23.953125 15.257812 23.5625 15.625 23.152344 C 15.703125 23.03125 15.777344 22.898438 15.851562 22.765625 Z M 16.007812 22.363281 C 15.503906 22.917969 14.804688 23.335938 14.226562 23.78125 C 13.082031 24.652344 12.046875 25.589844 11.105469 26.679688 C 11.078125 26.710938 11.050781 26.742188 11.023438 26.769531 C 11.351562 26.449219 11.691406 26.148438 12.058594 25.863281 C 12.949219 25.171875 13.832031 24.488281 14.675781 23.742188 C 14.957031 23.492188 15.265625 23.261719 15.527344 22.992188 C 15.699219 22.8125 15.863281 22.59375 16.007812 22.363281 Z M 13.980469 23.277344 C 13.769531 23.386719 13.550781 23.5 13.339844 23.613281 C 12.347656 24.320312 11.535156 25.339844 10.902344 26.339844 C 10.859375 26.410156 10.816406 26.476562 10.769531 26.542969 C 10.796875 26.503906 10.820312 26.46875 10.84375 26.433594 C 11.679688 25.230469 12.78125 24.140625 13.980469 23.277344 Z M 14.210938 24.929688 C 13.949219 25.082031 13.683594 25.21875 13.433594 25.386719 C 12.980469 25.695312 12.554688 26.046875 12.121094 26.375 C 12.875 25.933594 13.585938 25.503906 14.210938 24.929688 Z M 16.242188 21.824219 C 16.019531 22.027344 15.792969 22.222656 15.550781 22.394531 C 15.550781 22.394531 15.554688 22.398438 15.554688 22.398438 C 15.566406 22.421875 15.5625 22.453125 15.535156 22.464844 C 15.105469 22.726562 14.652344 22.929688 14.234375 23.21875 C 13.289062 23.871094 12.398438 24.671875 11.644531 25.5625 C 12.324219 24.789062 13.097656 24.097656 13.941406 23.5 C 14.683594 22.976562 15.558594 22.589844 16.175781 21.902344 C 16.195312 21.878906 16.214844 21.851562 16.242188 21.824219 Z M 7.148438 16.613281 C 7.183594 16.785156 7.222656 16.960938 7.289062 17.125 C 7.378906 17.359375 7.527344 17.5625 7.601562 17.800781 C 8.042969 19.195312 8.503906 20.597656 9.058594 21.949219 C 9.226562 22.355469 9.417969 22.75 9.613281 23.148438 C 9.640625 23.199219 9.667969 23.257812 9.699219 23.3125 C 9.582031 23.039062 9.519531 22.746094 9.429688 22.46875 C 9.238281 21.878906 9.039062 21.300781 8.847656 20.710938 C 8.535156 19.742188 8.21875 18.757812 7.808594 17.824219 C 7.648438 17.460938 7.421875 17.117188 7.234375 16.769531 C 7.203125 16.710938 7.175781 16.660156 7.148438 16.613281 Z M 7.792969 17.570312 C 7.828125 17.640625 7.863281 17.707031 7.894531 17.78125 C 8.304688 18.71875 8.621094 19.707031 8.9375 20.679688 C 9.128906 21.265625 9.328125 21.847656 9.519531 22.433594 C 9.566406 22.574219 9.605469 22.722656 9.648438 22.867188 C 9.585938 22.578125 9.53125 22.285156 9.457031 22 C 9.261719 21.28125 9.007812 20.574219 8.808594 19.855469 C 8.644531 19.257812 8.511719 18.539062 8.160156 18.007812 C 8.039062 17.863281 7.917969 17.71875 7.792969 17.570312 Z M 7.238281 19.035156 C 7.449219 20.050781 7.871094 21 8.46875 21.855469 C 8.695312 22.175781 8.953125 22.507812 9.207031 22.855469 C 9.101562 22.65625 8.992188 22.457031 8.882812 22.261719 C 8.523438 21.648438 8.175781 21.03125 7.851562 20.394531 C 7.617188 19.949219 7.40625 19.5 7.238281 19.035156 Z M 7.082031 16.78125 L 7.078125 16.84375 C 7.085938 17 7.101562 17.160156 7.128906 17.320312 C 7.191406 17.683594 7.332031 18.007812 7.445312 18.355469 C 7.597656 18.796875 7.726562 19.253906 7.902344 19.691406 C 8.050781 20.058594 8.238281 20.402344 8.390625 20.765625 C 8.636719 21.367188 8.910156 21.949219 9.203125 22.523438 C 9.117188 22.34375 9.042969 22.167969 8.964844 21.984375 C 8.410156 20.628906 7.949219 19.222656 7.503906 17.832031 C 7.429688 17.597656 7.28125 17.390625 7.195312 17.164062 C 7.144531 17.035156 7.109375 16.90625 7.082031 16.777344 Z M 8.492188 18.429688 C 8.675781 18.882812 8.78125 19.382812 8.902344 19.824219 C 9.101562 20.546875 9.355469 21.25 9.550781 21.972656 C 9.574219 22.0625 9.597656 22.152344 9.617188 22.246094 C 9.480469 21.152344 9.34375 20.082031 8.855469 19.046875 C 8.75 18.820312 8.625 18.621094 8.492188 18.429688 Z M 7.074219 17.542969 C 7.082031 17.804688 7.097656 18.066406 7.125 18.328125 C 7.292969 19.035156 7.597656 19.695312 7.9375 20.347656 C 8.207031 20.871094 8.488281 21.378906 8.777344 21.890625 C 8.609375 21.535156 8.449219 21.171875 8.296875 20.804688 C 8.144531 20.441406 7.957031 20.09375 7.808594 19.726562 C 7.632812 19.289062 7.5 18.835938 7.351562 18.386719 C 7.257812 18.101562 7.148438 17.832031 7.074219 17.542969 Z M 11.070312 12.660156 C 11.074219 13.476562 11.253906 14.335938 11.59375 15.03125 C 11.859375 15.570312 12.175781 16.105469 12.449219 16.660156 C 12.417969 16.574219 12.386719 16.488281 12.351562 16.410156 C 11.851562 15.285156 11.273438 14.09375 11.097656 12.863281 C 11.089844 12.796875 11.078125 12.726562 11.070312 12.660156 Z M 12.175781 12.390625 C 12.25 12.714844 12.269531 13.058594 12.304688 13.398438 C 12.34375 13.855469 12.414062 14.3125 12.425781 14.769531 C 12.433594 15.023438 12.433594 15.285156 12.445312 15.542969 C 12.507812 15.84375 12.570312 16.144531 12.636719 16.441406 C 12.636719 16.4375 12.632812 16.429688 12.632812 16.425781 C 12.59375 15.917969 12.632812 15.414062 12.628906 14.902344 C 12.628906 14.160156 12.566406 13.390625 12.339844 12.679688 C 12.285156 12.582031 12.230469 12.484375 12.175781 12.390625 Z M 12.589844 13.292969 C 12.691406 13.824219 12.726562 14.367188 12.726562 14.898438 C 12.726562 15.367188 12.695312 15.835938 12.722656 16.304688 C 12.765625 15.292969 12.882812 14.296875 12.589844 13.292969 Z M 11.191406 11.4375 C 11.175781 11.539062 11.160156 11.628906 11.144531 11.710938 C 11.128906 12.089844 11.136719 12.464844 11.191406 12.851562 C 11.367188 14.058594 11.925781 15.21875 12.417969 16.324219 C 12.410156 16.265625 12.398438 16.207031 12.390625 16.144531 C 12.320312 15.90625 12.238281 15.671875 12.164062 15.433594 C 11.933594 14.734375 11.636719 14.054688 11.460938 13.339844 C 11.3125 12.71875 11.203125 12.078125 11.191406 11.4375 Z M 11.316406 10.882812 L 11.3125 10.894531 C 11.246094 11.703125 11.363281 12.527344 11.558594 13.3125 C 11.730469 14.023438 12.027344 14.703125 12.257812 15.398438 C 12.285156 15.492188 12.316406 15.585938 12.351562 15.679688 C 12.347656 15.640625 12.34375 15.601562 12.347656 15.558594 C 12.148438 14.617188 11.957031 13.675781 11.75 12.738281 C 11.683594 12.449219 11.628906 12.152344 11.554688 11.863281 C 11.46875 11.539062 11.367188 11.210938 11.320312 10.875 Z M 11.457031 11.09375 C 11.511719 11.34375 11.585938 11.589844 11.648438 11.835938 C 11.722656 12.128906 11.777344 12.421875 11.84375 12.714844 C 12.011719 13.476562 12.167969 14.238281 12.328125 15 C 12.324219 14.921875 12.324219 14.847656 12.320312 14.769531 C 12.3125 14.316406 12.242188 13.859375 12.199219 13.402344 C 12.160156 12.941406 12.136719 12.46875 11.960938 12.046875 C 11.851562 11.871094 11.746094 11.695312 11.652344 11.507812 C 11.585938 11.371094 11.519531 11.238281 11.457031 11.09375 Z M 15.585938 14.230469 C 15.578125 14.238281 15.574219 14.242188 15.566406 14.25 C 15.542969 14.289062 15.515625 14.332031 15.488281 14.371094 C 15.484375 14.375 15.480469 14.378906 15.476562 14.382812 C 15.476562 14.390625 15.472656 14.398438 15.46875 14.402344 C 15.515625 14.351562 15.566406 14.304688 15.617188 14.253906 C 15.609375 14.25 15.601562 14.25 15.59375 14.246094 C 15.589844 14.242188 15.585938 14.238281 15.585938 14.230469 Z M 18.167969 10.71875 C 17.695312 11.089844 17.238281 11.472656 16.839844 11.9375 C 16.523438 12.308594 16.289062 12.765625 16.046875 13.1875 C 15.890625 13.457031 15.742188 13.734375 15.597656 14.019531 L 15.609375 14.003906 C 15.753906 13.792969 15.90625 13.589844 16.054688 13.386719 C 16.148438 13.257812 16.246094 13.125 16.339844 12.992188 C 16.789062 12.359375 17.1875 11.746094 17.714844 11.175781 C 17.859375 11.023438 18.011719 10.871094 18.167969 10.71875 Z M 20.457031 9.585938 C 19.90625 10.53125 19.175781 11.363281 18.335938 12.078125 C 17.8125 12.519531 17.273438 12.953125 16.734375 13.375 C 16.550781 13.519531 16.359375 13.664062 16.1875 13.824219 C 16.28125 13.761719 16.382812 13.703125 16.480469 13.648438 C 16.574219 13.582031 16.664062 13.519531 16.753906 13.453125 C 17.484375 12.953125 18.164062 12.378906 18.804688 11.777344 C 19.152344 11.453125 19.53125 11.144531 19.8125 10.761719 C 19.964844 10.511719 20.109375 10.257812 20.25 10.003906 C 20.320312 9.863281 20.390625 9.726562 20.457031 9.585938 Z M 20.121094 9.9375 C 19.460938 10.753906 18.636719 11.429688 17.820312 12.113281 C 17.328125 12.523438 16.867188 12.996094 16.417969 13.460938 C 16.351562 13.535156 16.28125 13.601562 16.210938 13.671875 C 16.359375 13.542969 16.515625 13.421875 16.675781 13.300781 C 17.210938 12.878906 17.753906 12.445312 18.277344 12.003906 C 18.980469 11.402344 19.609375 10.707031 20.121094 9.9375 Z M 20.519531 9.203125 C 20.296875 9.4375 20.0625 9.652344 19.832031 9.878906 C 19.230469 10.46875 18.652344 11.066406 18.03125 11.636719 C 17.605469 12.027344 17.167969 12.433594 16.78125 12.863281 C 16.578125 13.09375 16.378906 13.324219 16.179688 13.558594 C 16.234375 13.5 16.289062 13.445312 16.34375 13.390625 C 16.792969 12.925781 17.253906 12.449219 17.757812 12.03125 C 18.78125 11.183594 19.824219 10.335938 20.519531 9.203125 Z M 20.664062 8.902344 C 20.4375 9.054688 20.203125 9.203125 19.988281 9.382812 C 19.277344 9.980469 18.65625 10.671875 18.007812 11.335938 C 17.355469 12.003906 16.710938 12.703125 16.140625 13.449219 L 16.132812 13.464844 C 16.324219 13.238281 16.515625 13.015625 16.710938 12.792969 C 17.101562 12.359375 17.539062 11.957031 17.964844 11.558594 C 18.585938 10.988281 19.164062 10.394531 19.761719 9.804688 C 20.066406 9.511719 20.386719 9.222656 20.664062 8.902344 Z M 19.417969 11.34375 C 19.238281 11.515625 19.050781 11.679688 18.871094 11.847656 C 18.339844 12.339844 17.789062 12.816406 17.207031 13.246094 C 17.464844 13.105469 17.726562 12.953125 17.980469 12.777344 C 18.554688 12.378906 19.015625 11.890625 19.417969 11.34375 Z M 19.253906 9.914062 C 19.171875 9.96875 19.09375 10.023438 19.011719 10.078125 C 18.59375 10.441406 18.15625 10.847656 17.792969 11.242188 C 17.460938 11.601562 17.175781 11.984375 16.902344 12.375 C 17.238281 11.996094 17.585938 11.628906 17.941406 11.265625 C 18.378906 10.816406 18.804688 10.355469 19.253906 9.914062 Z M 15.121094 4.144531 C 15.160156 4.636719 15.167969 5.132812 15.144531 5.628906 C 15.109375 6.382812 15.042969 7.117188 14.960938 7.871094 C 14.925781 8.195312 14.890625 8.527344 14.890625 8.855469 C 14.984375 8.375 15.132812 7.898438 15.210938 7.394531 C 15.375 6.328125 15.351562 5.210938 15.121094 4.144531 Z M 13.835938 3.640625 C 13.71875 4.769531 13.789062 5.949219 14.074219 7.015625 C 14.210938 7.527344 14.398438 8.019531 14.585938 8.515625 C 14.476562 8.042969 14.382812 7.570312 14.292969 7.097656 C 14.066406 5.941406 13.855469 4.800781 13.835938 3.640625 Z M 13.964844 2.785156 C 13.96875 2.789062 13.964844 2.792969 13.964844 2.796875 C 13.851562 4.25 14.113281 5.648438 14.390625 7.078125 C 14.476562 7.535156 14.570312 7.984375 14.671875 8.4375 C 14.671875 8.386719 14.675781 8.335938 14.679688 8.289062 C 14.601562 7.859375 14.5 7.433594 14.429688 7.011719 C 14.253906 5.972656 14.144531 4.933594 14.042969 3.886719 C 14.003906 3.488281 13.96875 3.132812 13.964844 2.785156 Z M 14.898438 3.304688 C 14.96875 4.238281 14.953125 5.183594 14.882812 6.105469 C 14.847656 6.605469 14.890625 7.160156 14.84375 7.664062 C 14.828125 7.785156 14.816406 7.90625 14.800781 8.019531 C 14.808594 8.101562 14.8125 8.183594 14.824219 8.261719 C 14.835938 8.128906 14.847656 8 14.863281 7.863281 C 14.945312 7.109375 15.015625 6.375 15.046875 5.625 C 15.082031 4.886719 15.054688 4.160156 14.9375 3.429688 C 14.929688 3.402344 14.921875 3.375 14.914062 3.351562 C 14.910156 3.335938 14.902344 3.316406 14.898438 3.304688 Z M 14.417969 0.960938 C 14.21875 2.332031 14.308594 3.753906 14.4375 5.125 C 14.503906 5.875 14.570312 6.617188 14.667969 7.363281 C 14.664062 7.316406 14.667969 7.277344 14.664062 7.234375 C 14.625 6.542969 14.597656 5.859375 14.585938 5.167969 C 14.574219 3.910156 14.484375 2.234375 14.417969 0.960938 Z M 14.5625 1.824219 C 14.617188 2.933594 14.675781 4.179688 14.6875 5.167969 C 14.695312 5.859375 14.722656 6.539062 14.761719 7.226562 C 14.765625 7.253906 14.765625 7.285156 14.769531 7.3125 C 14.78125 6.910156 14.761719 6.484375 14.789062 6.09375 C 14.875 4.988281 14.878906 3.84375 14.746094 2.726562 C 14.671875 2.433594 14.613281 2.128906 14.5625 1.824219 Z M 14.253906 1.523438 C 14.191406 1.777344 14.136719 2.035156 14.074219 2.289062 C 14.042969 2.820312 14.085938 3.296875 14.140625 3.871094 C 14.242188 4.898438 14.347656 5.917969 14.515625 6.933594 C 14.445312 6.332031 14.390625 5.734375 14.335938 5.128906 C 14.230469 3.949219 14.148438 2.71875 14.253906 1.523438 Z M 14.253906 1.523438 " fill-opacity="1" fill-rule="evenodd"/></g></g></g><g fill="#ffffff" fill-opacity="1"><g transform="translate(41.937021, 24.752974)"><g><path d="M 3.84375 0 L 3.84375 -0.164062 C 3.195312 -0.164062 2.890625 -0.277344 2.890625 -0.894531 L 2.890625 -5.179688 L 4.488281 -5.179688 C 5.878906 -5.179688 6.074219 -4.628906 6.074219 -2.90625 L 6.253906 -2.90625 L 6.253906 -7.464844 L 6.074219 -7.464844 C 6.074219 -5.921875 5.878906 -5.371094 4.488281 -5.355469 L 2.890625 -5.355469 L 2.890625 -9.859375 L 4.515625 -9.859375 C 5.964844 -9.832031 6.925781 -9.722656 7.65625 -7.851562 L 7.835938 -7.851562 L 7.105469 -10.039062 L 0.414062 -10.039062 L 0.414062 -9.859375 C 1.074219 -9.859375 1.363281 -9.75 1.363281 -9.117188 L 1.363281 -0.921875 C 1.363281 -0.289062 1.074219 -0.179688 0.414062 -0.179688 L 0.414062 0 Z M 3.84375 0 "/></g></g></g><g fill="#ffffff" fill-opacity="1"><g transform="translate(51.506164, 24.752974)"><g><path d="M 0.414062 -9.859375 C 1.128906 -9.859375 1.570312 -9.777344 1.570312 -9.226562 L 1.570312 -0.921875 C 1.570312 -0.277344 1.253906 -0.179688 0.59375 -0.179688 L 0.59375 0 L 3.898438 0 L 3.898438 -0.179688 C 3.25 -0.179688 2.945312 -0.277344 2.945312 -0.921875 L 2.945312 -10.535156 L 0.414062 -10.039062 Z M 0.414062 -9.859375 "/></g></g></g><g fill="#ffffff" fill-opacity="1"><g transform="translate(56.931263, 24.752974)"><g><path d="M 0.550781 -3.457031 C 0.550781 -1.253906 1.804688 0.164062 4.0625 0.164062 C 6.210938 0.164062 7.574219 -1.253906 7.574219 -3.457031 C 7.574219 -5.496094 6.363281 -6.953125 4.0625 -6.953125 C 1.886719 -6.953125 0.550781 -5.496094 0.550781 -3.457031 Z M 3.925781 -6.777344 C 5.441406 -6.777344 6.058594 -4.875 6.058594 -3.320312 C 6.058594 -1.761719 5.507812 -0.015625 4.199219 -0.015625 C 2.683594 -0.015625 2.066406 -2.078125 2.066406 -3.59375 C 2.066406 -5.109375 2.617188 -6.777344 3.925781 -6.777344 Z M 3.925781 -6.777344 "/></g></g></g><g fill="#ffffff" fill-opacity="1"><g transform="translate(66.445332, 24.752974)"><g><path d="M 0.414062 -6.292969 L 0.414062 -6.113281 C 1.128906 -6.113281 1.554688 -5.878906 1.554688 -5.328125 L 1.554688 -0.921875 C 1.554688 -0.289062 1.238281 -0.179688 0.578125 -0.179688 L 0.578125 0 L 3.910156 0 L 3.910156 -0.179688 C 3.277344 -0.179688 2.960938 -0.277344 2.933594 -0.867188 L 2.933594 -4.695312 C 3.347656 -5.90625 3.992188 -6.074219 4.570312 -6.074219 C 5.46875 -6.074219 6.03125 -5.8125 6.402344 -4.832031 L 6.582031 -4.832031 L 6.199219 -6.636719 C 6.199219 -6.636719 5.769531 -6.953125 4.957031 -6.953125 C 3.691406 -6.953125 3.265625 -5.9375 2.988281 -5.34375 L 2.933594 -5.34375 L 2.933594 -6.789062 Z M 0.414062 -6.292969 "/></g></g></g><g fill="#ffffff" fill-opacity="1"><g transform="translate(74.761626, 24.752974)"><g><path d="M 0.550781 -1.984375 C 0.550781 -0.742188 1.378906 0.164062 2.808594 0.164062 C 3.621094 0.164062 4.585938 -0.207031 5.109375 -1.171875 L 5.164062 -1.171875 C 5.164062 -0.234375 5.550781 0.164062 6.691406 0.164062 C 7.933594 0.164062 8.261719 -0.566406 8.261719 -1.335938 L 8.085938 -1.335938 C 8.085938 -0.882812 7.851562 -0.191406 7.203125 -0.191406 C 6.664062 -0.191406 6.542969 -0.621094 6.542969 -1.335938 L 6.542969 -4.683594 C 6.542969 -6.019531 5.382812 -6.953125 3.511719 -6.953125 C 2.246094 -6.953125 0.796875 -6.199219 0.796875 -4.394531 L 0.976562 -4.394531 C 0.976562 -5.441406 1.777344 -6.265625 3.25 -6.265625 C 4.695312 -6.265625 5.164062 -5.441406 5.164062 -4.683594 L 5.164062 -3.871094 C 4.804688 -4.117188 4.296875 -4.308594 3.414062 -4.308594 C 2.480469 -4.308594 0.550781 -3.898438 0.550781 -1.984375 Z M 3.441406 -0.59375 C 2.4375 -0.59375 1.929688 -1.292969 1.929688 -2.410156 C 1.929688 -3.195312 2.355469 -4.050781 3.414062 -4.117188 C 3.992188 -4.160156 4.722656 -3.980469 5.164062 -3.621094 L 5.164062 -2.355469 C 5.164062 -1.183594 4.339844 -0.59375 3.441406 -0.59375 Z M 3.441406 -0.59375 "/></g></g></g><g fill="#ffffff" fill-opacity="1"><g transform="translate(84.413371, 24.752974)"><g><path d="M 0.414062 -9.859375 C 1.128906 -9.859375 1.570312 -9.777344 1.570312 -9.226562 L 1.570312 -0.921875 C 1.570312 -0.277344 1.253906 -0.179688 0.59375 -0.179688 L 0.59375 0 L 3.898438 0 L 3.898438 -0.179688 C 3.25 -0.179688 2.945312 -0.277344 2.945312 -0.921875 L 2.945312 -10.535156 L 0.414062 -10.039062 Z M 0.414062 -9.859375 "/></g></g></g><g fill="#ffffff" fill-opacity="1"><g transform="translate(89.83847, 24.752974)"><g/></g></g><g fill="#ffffff" fill-opacity="1"><g transform="translate(95.084589, 24.752974)"><g><path d="M 3.84375 0 L 3.84375 -0.164062 C 3.195312 -0.164062 2.890625 -0.277344 2.890625 -0.894531 L 2.890625 -5.179688 L 4.488281 -5.179688 C 5.878906 -5.179688 6.074219 -4.628906 6.074219 -2.90625 L 6.253906 -2.90625 L 6.253906 -7.464844 L 6.074219 -7.464844 C 6.074219 -5.921875 5.878906 -5.371094 4.488281 -5.355469 L 2.890625 -5.355469 L 2.890625 -9.859375 L 4.515625 -9.859375 C 5.964844 -9.832031 6.925781 -9.722656 7.65625 -7.851562 L 7.835938 -7.851562 L 7.105469 -10.039062 L 0.414062 -10.039062 L 0.414062 -9.859375 C 1.074219 -9.859375 1.363281 -9.75 1.363281 -9.117188 L 1.363281 -0.921875 C 1.363281 -0.289062 1.074219 -0.179688 0.414062 -0.179688 L 0.414062 0 Z M 3.84375 0 "/></g></g></g><g fill="#ffffff" fill-opacity="1"><g transform="translate(104.653732, 24.752974)"><g><path d="M 0.414062 -6.113281 C 1.128906 -6.113281 1.554688 -5.90625 1.554688 -5.355469 L 1.554688 -0.921875 C 1.554688 -0.289062 1.238281 -0.179688 0.578125 -0.179688 L 0.578125 0 L 3.910156 0 L 3.910156 -0.179688 C 3.277344 -0.179688 2.933594 -0.277344 2.933594 -0.921875 L 2.933594 -6.789062 L 0.414062 -6.292969 Z M 2.246094 -8.042969 C 2.65625 -8.042969 3.003906 -8.375 3.003906 -8.785156 C 3.003906 -9.199219 2.65625 -9.53125 2.246094 -9.53125 C 1.832031 -9.53125 1.5 -9.199219 1.5 -8.785156 C 1.5 -8.375 1.832031 -8.042969 2.246094 -8.042969 Z M 2.246094 -8.042969 "/></g></g></g><g fill="#ffffff" fill-opacity="1"><g transform="translate(110.092601, 24.752974)"><g><path d="M 4.050781 0.164062 C 6.226562 0.164062 6.996094 -1.417969 7.039062 -3.015625 L 6.859375 -3.015625 C 6.859375 -2.3125 6.488281 -0.59375 4.585938 -0.59375 C 2.78125 -0.59375 1.929688 -1.984375 1.929688 -3.910156 C 1.929688 -4.035156 1.929688 -4.160156 1.941406 -4.28125 L 6.859375 -4.28125 C 6.859375 -5.742188 5.878906 -6.953125 4.214844 -6.953125 C 1.914062 -6.953125 0.550781 -5.179688 0.550781 -3.359375 C 0.550781 -1.320312 1.734375 0.164062 4.050781 0.164062 Z M 1.96875 -4.460938 C 2.148438 -5.796875 2.976562 -6.679688 4.078125 -6.679688 C 5.523438 -6.679688 5.703125 -5.46875 5.703125 -4.460938 Z M 1.96875 -4.460938 "/></g></g></g><g fill="#ffffff" fill-opacity="1"><g transform="translate(118.863221, 24.752974)"><g><path d="M 0.730469 0 C 0.730469 -0.179688 0.8125 -0.304688 0.964844 -0.332031 C 1.515625 -0.441406 1.804688 0.164062 3.125 0.164062 C 4.515625 0.164062 5.453125 -0.660156 5.46875 -1.804688 C 5.46875 -4.40625 1.804688 -3.703125 1.832031 -5.730469 C 1.832031 -6.308594 2.246094 -6.691406 2.863281 -6.691406 C 4.035156 -6.691406 4.722656 -5.714844 4.722656 -4.542969 L 4.917969 -4.542969 L 4.902344 -6.789062 L 4.722656 -6.789062 C 4.722656 -6.609375 4.65625 -6.445312 4.460938 -6.445312 C 4.035156 -6.445312 3.621094 -6.953125 2.726562 -6.953125 C 1.433594 -6.953125 0.578125 -6.199219 0.578125 -5 C 0.59375 -2.546875 4.214844 -3.375 4.214844 -1.226562 C 4.214844 -0.578125 3.757812 -0.109375 2.824219 -0.109375 C 1.984375 -0.109375 0.730469 -0.714844 0.730469 -2.851562 L 0.550781 -2.851562 L 0.550781 0 Z M 0.730469 0 "/></g></g></g><g fill="#ffffff" fill-opacity="1"><g transform="translate(126.133179, 24.752974)"><g><path d="M 0.277344 -6.609375 L 1.292969 -6.609375 L 1.292969 -1.472656 C 1.292969 -0.304688 1.679688 0.179688 2.90625 0.179688 C 4.019531 0.179688 4.394531 -0.660156 4.394531 -1.335938 L 4.214844 -1.335938 C 4.214844 -0.867188 3.964844 -0.207031 3.347656 -0.207031 C 2.78125 -0.207031 2.671875 -0.605469 2.671875 -1.335938 L 2.671875 -6.609375 L 4.144531 -6.609375 L 4.144531 -6.789062 L 2.671875 -6.789062 L 2.671875 -9.171875 L 2.492188 -9.171875 C 2.3125 -8.140625 1.761719 -6.980469 0.277344 -6.789062 Z M 0.277344 -6.609375 "/></g></g></g><g fill="#ffffff" fill-opacity="1"><g transform="translate(131.916232, 24.752974)"><g><path d="M 0.550781 -1.984375 C 0.550781 -0.742188 1.378906 0.164062 2.808594 0.164062 C 3.621094 0.164062 4.585938 -0.207031 5.109375 -1.171875 L 5.164062 -1.171875 C 5.164062 -0.234375 5.550781 0.164062 6.691406 0.164062 C 7.933594 0.164062 8.261719 -0.566406 8.261719 -1.335938 L 8.085938 -1.335938 C 8.085938 -0.882812 7.851562 -0.191406 7.203125 -0.191406 C 6.664062 -0.191406 6.542969 -0.621094 6.542969 -1.335938 L 6.542969 -4.683594 C 6.542969 -6.019531 5.382812 -6.953125 3.511719 -6.953125 C 2.246094 -6.953125 0.796875 -6.199219 0.796875 -4.394531 L 0.976562 -4.394531 C 0.976562 -5.441406 1.777344 -6.265625 3.25 -6.265625 C 4.695312 -6.265625 5.164062 -5.441406 5.164062 -4.683594 L 5.164062 -3.871094 C 4.804688 -4.117188 4.296875 -4.308594 3.414062 -4.308594 C 2.480469 -4.308594 0.550781 -3.898438 0.550781 -1.984375 Z M 3.441406 -0.59375 C 2.4375 -0.59375 1.929688 -1.292969 1.929688 -2.410156 C 1.929688 -3.195312 2.355469 -4.050781 3.414062 -4.117188 C 3.992188 -4.160156 4.722656 -3.980469 5.164062 -3.621094 L 5.164062 -2.355469 C 5.164062 -1.183594 4.339844 -0.59375 3.441406 -0.59375 Z M 3.441406 -0.59375 "/></g></g></g><g fill="#ffffff" fill-opacity="1"><g transform="translate(19.866112, 40.688095)"><g><path d="M 18.5625 -25.125 L 18.5625 -19.953125 L 18.15625 -20.03125 C 18.15625 -21.601562 17.3125 -22.707031 15.625 -23.34375 C 13.9375 -23.976562 11.375 -24.296875 7.9375 -24.296875 L 7.9375 -13 C 9.320312 -13.039062 10.398438 -13.113281 11.171875 -13.21875 C 11.953125 -13.332031 12.546875 -13.5625 12.953125 -13.90625 C 13.359375 -14.25 13.609375 -14.625 13.703125 -15.03125 C 13.804688 -15.4375 13.859375 -16.0625 13.859375 -16.90625 L 14.28125 -16.96875 L 14.28125 -8.25 L 13.859375 -8.328125 C 13.859375 -9.429688 13.742188 -10.21875 13.515625 -10.6875 C 13.285156 -11.164062 12.757812 -11.523438 11.9375 -11.765625 C 11.113281 -12.003906 9.78125 -12.148438 7.9375 -12.203125 L 7.9375 -8.109375 C 7.9375 -4.710938 8.085938 -2.726562 8.390625 -2.15625 C 8.535156 -1.84375 8.695312 -1.546875 8.875 -1.265625 C 9.0625 -0.992188 9.332031 -0.8125 9.6875 -0.71875 C 10.457031 -0.53125 11.390625 -0.4375 12.484375 -0.4375 L 12.5625 0 L 1.796875 0 L 1.859375 -0.4375 C 3.054688 -0.4375 3.929688 -0.660156 4.484375 -1.109375 C 5.085938 -1.609375 5.390625 -3.941406 5.390625 -8.109375 L 5.390625 -17.015625 C 5.390625 -19.578125 5.3125 -21.328125 5.15625 -22.265625 C 5 -23.210938 4.773438 -23.804688 4.484375 -24.046875 C 3.929688 -24.503906 3.054688 -24.734375 1.859375 -24.734375 L 1.796875 -25.125 Z M 18.5625 -25.125 "/></g></g></g><g fill="#ffffff" fill-opacity="1"><g transform="translate(78.207705, 30.852618)"><g><path d="M 0.285156 0 L 1.589844 0 C 3.074219 0 3.621094 -0.710938 3.609375 -1.417969 C 3.605469 -2.019531 3.097656 -2.476562 2.101562 -2.507812 C 2.863281 -2.640625 3.121094 -3.011719 3.121094 -3.421875 C 3.121094 -3.910156 2.761719 -4.21875 1.773438 -4.21875 L 0.285156 -4.21875 L 0.285156 -4.132812 C 0.480469 -4.066406 0.523438 -3.886719 0.523438 -3.453125 L 0.523438 -0.765625 C 0.523438 -0.332031 0.480469 -0.152344 0.285156 -0.0859375 Z M 1.164062 -0.621094 L 1.164062 -2.429688 L 1.589844 -2.429688 C 2.488281 -2.429688 2.894531 -1.917969 2.894531 -1.191406 C 2.894531 -0.554688 2.511719 -0.0976562 1.644531 -0.0976562 L 1.476562 -0.0976562 C 1.21875 -0.0976562 1.164062 -0.1875 1.164062 -0.621094 Z M 1.164062 -2.523438 L 1.164062 -4.121094 L 1.410156 -4.121094 C 2.023438 -4.121094 2.40625 -3.816406 2.40625 -3.285156 C 2.40625 -2.863281 2.140625 -2.523438 1.699219 -2.523438 Z M 1.164062 -2.523438 "/></g></g></g><g fill="#ffffff" fill-opacity="1"><g transform="translate(82.01473, 30.852618)"><g><path d="M 0.21875 1.164062 C 0.769531 1.152344 1.191406 0.875 1.652344 -0.179688 L 2.574219 -2.3125 C 2.75 -2.710938 2.917969 -2.863281 3.097656 -2.929688 L 3.097656 -3.011719 L 2.410156 -3.011719 L 2.410156 -2.929688 C 2.617188 -2.878906 2.644531 -2.710938 2.476562 -2.308594 L 1.800781 -0.746094 L 1.113281 -2.3125 C 0.941406 -2.710938 0.851562 -2.863281 1.046875 -2.929688 L 1.046875 -3.011719 L -0.0195312 -3.011719 L -0.0195312 -2.929688 C 0.121094 -2.863281 0.285156 -2.710938 0.453125 -2.308594 L 1.464844 0.03125 C 1.332031 0.308594 1.1875 0.542969 1.042969 0.699219 C 0.730469 0.644531 0.398438 0.589844 0.222656 0.589844 C -0.0585938 0.589844 -0.222656 0.855469 -0.222656 0.96875 C -0.222656 1.089844 -0.03125 1.167969 0.21875 1.164062 Z M 0.21875 1.164062 "/></g></g></g><g fill="#ffffff" fill-opacity="1"><g transform="translate(85.056733, 30.852618)"><g/></g></g><g fill="#ffffff" fill-opacity="1"><g transform="translate(86.261487, 30.852618)"><g><path d="M 1.722656 0.0585938 C 2.417969 0.0585938 3.175781 -0.398438 3.175781 -1.222656 C 3.175781 -1.945312 2.445312 -2.21875 1.832031 -2.453125 C 1.351562 -2.644531 0.742188 -2.863281 0.742188 -3.398438 C 0.742188 -3.875 1.121094 -4.160156 1.601562 -4.160156 C 2.1875 -4.160156 2.699219 -3.820312 2.945312 -3.199219 L 3.011719 -3.222656 L 2.988281 -4.007812 C 2.675781 -4.164062 2.277344 -4.261719 1.832031 -4.261719 C 0.886719 -4.261719 0.285156 -3.796875 0.285156 -3.050781 C 0.285156 -2.351562 0.800781 -2.144531 1.421875 -1.886719 C 1.90625 -1.695312 2.683594 -1.417969 2.683594 -0.824219 C 2.683594 -0.332031 2.296875 -0.0664062 1.878906 -0.0664062 C 1.078125 -0.0664062 0.542969 -0.597656 0.289062 -1.285156 L 0.210938 -1.273438 L 0.234375 -0.367188 C 0.542969 -0.136719 1.101562 0.0585938 1.722656 0.0585938 Z M 1.722656 0.0585938 "/></g></g></g><g fill="#ffffff" fill-opacity="1"><g transform="translate(89.592633, 30.852618)"><g><path d="M 2.472656 0 L 3.074219 0 L 3.074219 -0.0859375 C 2.875 -0.152344 2.832031 -0.332031 2.832031 -0.765625 L 2.832031 -1.929688 C 2.832031 -2.664062 2.488281 -3.054688 1.757812 -3.054688 C 1.210938 -3.054688 0.746094 -2.777344 0.410156 -2.363281 L 0.46875 -2.308594 C 0.777344 -2.675781 1.109375 -2.820312 1.445312 -2.820312 C 1.890625 -2.820312 2.21875 -2.589844 2.230469 -1.996094 L 1.5625 -1.800781 C 0.8125 -1.589844 0.179688 -1.351562 0.179688 -0.730469 C 0.179688 -0.222656 0.554688 0.0585938 1 0.0585938 C 1.628906 0.0585938 2.0625 -0.535156 2.230469 -1.234375 L 2.230469 -0.242188 C 2.230469 -0.0859375 2.3125 0 2.472656 0 Z M 0.742188 -0.941406 C 0.742188 -1.441406 1.300781 -1.644531 1.585938 -1.722656 L 2.230469 -1.910156 L 2.230469 -1.753906 C 2.222656 -1.210938 1.890625 -0.378906 1.300781 -0.378906 C 1.023438 -0.378906 0.742188 -0.542969 0.742188 -0.941406 Z M 0.742188 -0.941406 "/></g></g></g><g fill="#ffffff" fill-opacity="1"><g transform="translate(92.785234, 30.852618)"><g><path d="M 0.167969 0 L 1.265625 0 L 1.265625 -0.0859375 C 1.066406 -0.152344 1.023438 -0.332031 1.023438 -0.765625 L 1.023438 -2.410156 C 1.351562 -2.675781 1.609375 -2.8125 1.890625 -2.8125 C 2.339844 -2.8125 2.574219 -2.496094 2.574219 -1.953125 L 2.574219 -0.765625 C 2.574219 -0.332031 2.53125 -0.152344 2.332031 -0.0859375 L 2.332031 0 L 3.429688 0 L 3.429688 -0.0859375 C 3.230469 -0.152344 3.1875 -0.332031 3.1875 -0.765625 L 3.1875 -2.0625 C 3.1875 -2.765625 2.8125 -3.054688 2.261719 -3.054688 C 1.789062 -3.054688 1.355469 -2.785156 1.023438 -2.511719 L 1.023438 -3.019531 L 0.964844 -3.066406 L 0.167969 -2.71875 L 0.167969 -2.632812 C 0.320312 -2.566406 0.410156 -2.507812 0.410156 -2.152344 L 0.410156 -0.765625 C 0.410156 -0.332031 0.367188 -0.152344 0.167969 -0.0859375 Z M 0.167969 0 "/></g></g></g><g fill="#ffffff" fill-opacity="1"><g transform="translate(96.333232, 30.852618)"><g><path d="M 1.046875 1.667969 C 2.15625 1.667969 3.195312 0.789062 3.195312 0.132812 C 3.195312 -0.296875 2.894531 -0.410156 2.273438 -0.445312 L 1.464844 -0.496094 C 0.910156 -0.523438 0.824219 -0.644531 0.824219 -0.757812 C 0.824219 -0.863281 0.898438 -0.921875 1 -0.988281 C 1.1875 -0.917969 1.398438 -0.886719 1.585938 -0.886719 C 2.078125 -0.886719 2.800781 -1.355469 2.800781 -2.03125 C 2.800781 -2.550781 2.5 -2.84375 2.117188 -2.972656 C 2.175781 -3.0625 2.234375 -3.132812 2.296875 -3.183594 C 2.640625 -3.066406 2.820312 -3.011719 2.964844 -3.011719 C 3.21875 -3.011719 3.34375 -3.273438 3.34375 -3.378906 C 3.34375 -3.496094 3.183594 -3.542969 2.996094 -3.542969 C 2.742188 -3.542969 2.539062 -3.464844 2.34375 -3.328125 C 2.21875 -3.242188 2.109375 -3.128906 2.023438 -3 C 1.886719 -3.039062 1.734375 -3.054688 1.585938 -3.054688 C 0.929688 -3.054688 0.355469 -2.539062 0.355469 -1.90625 C 0.355469 -1.445312 0.601562 -1.175781 0.917969 -1.023438 C 0.589844 -0.832031 0.433594 -0.667969 0.433594 -0.445312 C 0.433594 -0.191406 0.585938 -0.0546875 0.835938 0.0195312 C 0.367188 0.300781 0.0976562 0.613281 0.0976562 0.941406 C 0.0976562 1.507812 0.679688 1.667969 1.046875 1.667969 Z M 0.589844 0.644531 C 0.589844 0.445312 0.667969 0.234375 0.941406 0.0429688 C 1.054688 0.0585938 1.1875 0.078125 1.332031 0.0859375 L 2.300781 0.132812 C 2.777344 0.15625 2.90625 0.269531 2.90625 0.464844 C 2.90625 0.886719 2.320312 1.308594 1.476562 1.308594 C 1.007812 1.308594 0.589844 1.125 0.589844 0.644531 Z M 0.917969 -2.234375 C 0.917969 -2.597656 1.023438 -2.921875 1.386719 -2.964844 C 1.929688 -3.019531 2.246094 -2.222656 2.246094 -1.6875 C 2.246094 -1.332031 2.121094 -0.988281 1.710938 -0.988281 C 1.15625 -0.988281 0.917969 -1.742188 0.917969 -2.234375 Z M 0.917969 -2.234375 "/></g></g></g><g fill="#ffffff" fill-opacity="1"><g transform="translate(99.549928, 30.852618)"><g><path d="M 0.121094 0 L 1.21875 0 L 1.21875 -0.0859375 C 1.019531 -0.152344 0.976562 -0.332031 0.976562 -0.765625 L 0.976562 -2.410156 C 1.300781 -2.675781 1.5625 -2.8125 1.84375 -2.8125 C 2.289062 -2.8125 2.523438 -2.496094 2.523438 -1.953125 L 2.523438 -0.765625 C 2.523438 -0.332031 2.484375 -0.152344 2.285156 -0.0859375 L 2.285156 0 L 3.378906 0 L 3.378906 -0.0859375 C 3.183594 -0.152344 3.140625 -0.332031 3.140625 -0.765625 L 3.140625 -2.0625 C 3.140625 -2.765625 2.765625 -3.054688 2.210938 -3.054688 C 1.742188 -3.054688 1.308594 -2.785156 0.976562 -2.511719 L 0.976562 -4.828125 L 0.917969 -4.875 L 0.121094 -4.527344 L 0.121094 -4.441406 C 0.269531 -4.375 0.363281 -4.316406 0.363281 -3.960938 L 0.363281 -0.765625 C 0.363281 -0.332031 0.320312 -0.152344 0.121094 -0.0859375 Z M 0.121094 0 "/></g></g></g><g fill="#ffffff" fill-opacity="1"><g transform="translate(103.049737, 30.852618)"><g><path d="M 0.355469 -2.308594 L 1.320312 0 L 1.601562 0 L 2.484375 -2.296875 C 2.640625 -2.707031 2.761719 -2.867188 2.933594 -2.929688 L 2.933594 -3.011719 L 2.289062 -3.011719 L 2.289062 -2.929688 C 2.496094 -2.878906 2.539062 -2.707031 2.386719 -2.296875 L 1.734375 -0.613281 L 1.019531 -2.308594 C 0.84375 -2.707031 0.757812 -2.863281 0.957031 -2.929688 L 0.957031 -3.011719 L -0.0742188 -3.011719 L -0.0742188 -2.929688 C 0.0585938 -2.867188 0.1875 -2.707031 0.355469 -2.308594 Z M 0.355469 -2.308594 "/></g></g></g><g fill="#ffffff" fill-opacity="1"><g transform="translate(105.9291, 30.852618)"><g><path d="M 0.167969 0 L 1.265625 0 L 1.265625 -0.0859375 C 1.066406 -0.152344 1.023438 -0.332031 1.023438 -0.765625 L 1.023438 -3.019531 L 0.964844 -3.066406 L 0.167969 -2.71875 L 0.167969 -2.632812 C 0.320312 -2.566406 0.410156 -2.507812 0.410156 -2.152344 L 0.410156 -0.765625 C 0.410156 -0.332031 0.367188 -0.152344 0.167969 -0.0859375 Z M 0.269531 -3.683594 C 0.269531 -3.453125 0.453125 -3.273438 0.679688 -3.273438 C 0.910156 -3.273438 1.089844 -3.453125 1.089844 -3.683594 C 1.089844 -3.917969 0.921875 -4.097656 0.679688 -4.097656 C 0.453125 -4.097656 0.269531 -3.917969 0.269531 -3.683594 Z M 0.269531 -3.683594 "/></g></g></g><g fill="#ffffff" fill-opacity="1"><g transform="translate(107.374807, 30.852618)"><g/></g></g><g fill="#ffffff" fill-opacity="1"><g transform="translate(108.57956, 30.852618)"><g><path d="M 0.285156 0 L 1.402344 0 L 1.402344 -0.0859375 C 1.207031 -0.152344 1.164062 -0.332031 1.164062 -0.765625 L 1.164062 -3.453125 C 1.164062 -3.886719 1.207031 -4.066406 1.402344 -4.132812 L 1.402344 -4.21875 L 0.285156 -4.21875 L 0.285156 -4.132812 C 0.480469 -4.066406 0.523438 -3.886719 0.523438 -3.453125 L 0.523438 -0.765625 C 0.523438 -0.332031 0.480469 -0.152344 0.285156 -0.0859375 Z M 0.285156 0 "/></g></g></g><g fill="#ffffff" fill-opacity="1"><g transform="translate(110.266214, 30.852618)"><g><path d="M 0.167969 0 L 1.265625 0 L 1.265625 -0.0859375 C 1.066406 -0.152344 1.023438 -0.332031 1.023438 -0.765625 L 1.023438 -2.410156 C 1.351562 -2.675781 1.609375 -2.8125 1.890625 -2.8125 C 2.339844 -2.8125 2.574219 -2.496094 2.574219 -1.953125 L 2.574219 -0.765625 C 2.574219 -0.332031 2.53125 -0.152344 2.332031 -0.0859375 L 2.332031 0 L 3.429688 0 L 3.429688 -0.0859375 C 3.230469 -0.152344 3.1875 -0.332031 3.1875 -0.765625 L 3.1875 -2.0625 C 3.1875 -2.765625 2.8125 -3.054688 2.261719 -3.054688 C 1.789062 -3.054688 1.355469 -2.785156 1.023438 -2.511719 L 1.023438 -3.019531 L 0.964844 -3.066406 L 0.167969 -2.71875 L 0.167969 -2.632812 C 0.320312 -2.566406 0.410156 -2.507812 0.410156 -2.152344 L 0.410156 -0.765625 C 0.410156 -0.332031 0.367188 -0.152344 0.167969 -0.0859375 Z M 0.167969 0 "/></g></g></g><g fill="#ffffff" fill-opacity="1"><g transform="translate(113.814212, 30.852618)"><g><path d="M 0.167969 0 L 1.265625 0 L 1.265625 -0.0859375 C 1.066406 -0.152344 1.023438 -0.332031 1.023438 -0.765625 L 1.023438 -2.410156 C 1.351562 -2.675781 1.609375 -2.8125 1.890625 -2.8125 C 2.339844 -2.8125 2.574219 -2.496094 2.574219 -1.953125 L 2.574219 -0.765625 C 2.574219 -0.332031 2.53125 -0.152344 2.332031 -0.0859375 L 2.332031 0 L 3.429688 0 L 3.429688 -0.0859375 C 3.230469 -0.152344 3.1875 -0.332031 3.1875 -0.765625 L 3.1875 -2.0625 C 3.1875 -2.765625 2.8125 -3.054688 2.261719 -3.054688 C 1.789062 -3.054688 1.355469 -2.785156 1.023438 -2.511719 L 1.023438 -3.019531 L 0.964844 -3.066406 L 0.167969 -2.71875 L 0.167969 -2.632812 C 0.320312 -2.566406 0.410156 -2.507812 0.410156 -2.152344 L 0.410156 -0.765625 C 0.410156 -0.332031 0.367188 -0.152344 0.167969 -0.0859375 Z M 0.167969 0 "/></g></g></g><g fill="#ffffff" fill-opacity="1"><g transform="translate(117.362211, 30.852618)"><g><path d="M 1.796875 0.0585938 C 2.507812 0.0585938 3.398438 -0.523438 3.398438 -1.554688 C 3.398438 -2.617188 2.542969 -3.054688 1.796875 -3.054688 C 0.96875 -3.054688 0.1875 -2.40625 0.1875 -1.429688 C 0.1875 -0.402344 1.011719 0.0585938 1.796875 0.0585938 Z M 0.789062 -1.878906 C 0.789062 -2.398438 0.964844 -2.878906 1.488281 -2.933594 C 2.265625 -3.011719 2.789062 -1.863281 2.789062 -1.097656 C 2.789062 -0.585938 2.597656 -0.0742188 2.007812 -0.0742188 C 1.210938 -0.0742188 0.789062 -1.167969 0.789062 -1.878906 Z M 0.789062 -1.878906 "/></g></g></g><g fill="#ffffff" fill-opacity="1"><g transform="translate(121.006595, 30.852618)"><g><path d="M 0.355469 -2.308594 L 1.320312 0 L 1.601562 0 L 2.484375 -2.296875 C 2.640625 -2.707031 2.761719 -2.867188 2.933594 -2.929688 L 2.933594 -3.011719 L 2.289062 -3.011719 L 2.289062 -2.929688 C 2.496094 -2.878906 2.539062 -2.707031 2.386719 -2.296875 L 1.734375 -0.613281 L 1.019531 -2.308594 C 0.84375 -2.707031 0.757812 -2.863281 0.957031 -2.929688 L 0.957031 -3.011719 L -0.0742188 -3.011719 L -0.0742188 -2.929688 C 0.0585938 -2.867188 0.1875 -2.707031 0.355469 -2.308594 Z M 0.355469 -2.308594 "/></g></g></g><g fill="#ffffff" fill-opacity="1"><g transform="translate(123.885958, 30.852618)"><g><path d="M 2.472656 0 L 3.074219 0 L 3.074219 -0.0859375 C 2.875 -0.152344 2.832031 -0.332031 2.832031 -0.765625 L 2.832031 -1.929688 C 2.832031 -2.664062 2.488281 -3.054688 1.757812 -3.054688 C 1.210938 -3.054688 0.746094 -2.777344 0.410156 -2.363281 L 0.46875 -2.308594 C 0.777344 -2.675781 1.109375 -2.820312 1.445312 -2.820312 C 1.890625 -2.820312 2.21875 -2.589844 2.230469 -1.996094 L 1.5625 -1.800781 C 0.8125 -1.589844 0.179688 -1.351562 0.179688 -0.730469 C 0.179688 -0.222656 0.554688 0.0585938 1 0.0585938 C 1.628906 0.0585938 2.0625 -0.535156 2.230469 -1.234375 L 2.230469 -0.242188 C 2.230469 -0.0859375 2.3125 0 2.472656 0 Z M 0.742188 -0.941406 C 0.742188 -1.441406 1.300781 -1.644531 1.585938 -1.722656 L 2.230469 -1.910156 L 2.230469 -1.753906 C 2.222656 -1.210938 1.890625 -0.378906 1.300781 -0.378906 C 1.023438 -0.378906 0.742188 -0.542969 0.742188 -0.941406 Z M 0.742188 -0.941406 "/></g></g></g><g fill="#ffffff" fill-opacity="1"><g transform="translate(127.078558, 30.852618)"><g><path d="M 1.132812 0.0585938 C 1.496094 0.0585938 1.800781 -0.179688 2.121094 -0.546875 L 2.0625 -0.609375 C 1.863281 -0.363281 1.65625 -0.308594 1.523438 -0.308594 C 1.257812 -0.308594 1.121094 -0.46875 1.121094 -0.84375 L 1.121094 -2.917969 L 2.03125 -2.917969 L 2.054688 -3.011719 L 1.121094 -3.011719 L 1.121094 -3.808594 L 1.023438 -3.808594 L 0.121094 -3.011719 L 0.121094 -2.917969 L 0.507812 -2.917969 L 0.507812 -0.851562 C 0.507812 -0.199219 0.722656 0.0585938 1.132812 0.0585938 Z M 1.132812 0.0585938 "/></g></g></g><g fill="#ffffff" fill-opacity="1"><g transform="translate(129.223024, 30.852618)"><g><path d="M 0.167969 0 L 1.265625 0 L 1.265625 -0.0859375 C 1.066406 -0.152344 1.023438 -0.332031 1.023438 -0.765625 L 1.023438 -3.019531 L 0.964844 -3.066406 L 0.167969 -2.71875 L 0.167969 -2.632812 C 0.320312 -2.566406 0.410156 -2.507812 0.410156 -2.152344 L 0.410156 -0.765625 C 0.410156 -0.332031 0.367188 -0.152344 0.167969 -0.0859375 Z M 0.269531 -3.683594 C 0.269531 -3.453125 0.453125 -3.273438 0.679688 -3.273438 C 0.910156 -3.273438 1.089844 -3.453125 1.089844 -3.683594 C 1.089844 -3.917969 0.921875 -4.097656 0.679688 -4.097656 C 0.453125 -4.097656 0.269531 -3.917969 0.269531 -3.683594 Z M 0.269531 -3.683594 "/></g></g></g><g fill="#ffffff" fill-opacity="1"><g transform="translate(130.668731, 30.852618)"><g><path d="M 1.796875 0.0585938 C 2.507812 0.0585938 3.398438 -0.523438 3.398438 -1.554688 C 3.398438 -2.617188 2.542969 -3.054688 1.796875 -3.054688 C 0.96875 -3.054688 0.1875 -2.40625 0.1875 -1.429688 C 0.1875 -0.402344 1.011719 0.0585938 1.796875 0.0585938 Z M 0.789062 -1.878906 C 0.789062 -2.398438 0.964844 -2.878906 1.488281 -2.933594 C 2.265625 -3.011719 2.789062 -1.863281 2.789062 -1.097656 C 2.789062 -0.585938 2.597656 -0.0742188 2.007812 -0.0742188 C 1.210938 -0.0742188 0.789062 -1.167969 0.789062 -1.878906 Z M 0.789062 -1.878906 "/></g></g></g><g fill="#ffffff" fill-opacity="1"><g transform="translate(134.313115, 30.852618)"><g><path d="M 0.167969 0 L 1.265625 0 L 1.265625 -0.0859375 C 1.066406 -0.152344 1.023438 -0.332031 1.023438 -0.765625 L 1.023438 -2.410156 C 1.351562 -2.675781 1.609375 -2.8125 1.890625 -2.8125 C 2.339844 -2.8125 2.574219 -2.496094 2.574219 -1.953125 L 2.574219 -0.765625 C 2.574219 -0.332031 2.53125 -0.152344 2.332031 -0.0859375 L 2.332031 0 L 3.429688 0 L 3.429688 -0.0859375 C 3.230469 -0.152344 3.1875 -0.332031 3.1875 -0.765625 L 3.1875 -2.0625 C 3.1875 -2.765625 2.8125 -3.054688 2.261719 -3.054688 C 1.789062 -3.054688 1.355469 -2.785156 1.023438 -2.511719 L 1.023438 -3.019531 L 0.964844 -3.066406 L 0.167969 -2.71875 L 0.167969 -2.632812 C 0.320312 -2.566406 0.410156 -2.507812 0.410156 -2.152344 L 0.410156 -0.765625 C 0.410156 -0.332031 0.367188 -0.152344 0.167969 -0.0859375 Z M 0.167969 0 "/></g></g></g><g fill="#ffffff" fill-opacity="1"><g transform="translate(137.861113, 30.852618)"><g><path d="M 1.332031 0.046875 C 2.207031 0.046875 2.496094 -0.46875 2.496094 -0.929688 C 2.496094 -1.542969 1.964844 -1.6875 1.484375 -1.851562 C 0.941406 -2.03125 0.640625 -2.175781 0.640625 -2.511719 C 0.640625 -2.773438 0.886719 -2.972656 1.265625 -2.972656 C 1.707031 -2.972656 2.078125 -2.65625 2.285156 -2.230469 L 2.355469 -2.242188 L 2.328125 -2.90625 C 2.121094 -2.988281 1.753906 -3.054688 1.410156 -3.054688 C 0.589844 -3.054688 0.234375 -2.632812 0.234375 -2.175781 C 0.234375 -1.632812 0.625 -1.457031 1.257812 -1.265625 C 1.785156 -1.101562 2.089844 -0.953125 2.089844 -0.566406 C 2.089844 -0.289062 1.851562 -0.0429688 1.476562 -0.046875 C 0.941406 -0.0546875 0.507812 -0.457031 0.246094 -1.035156 L 0.1875 -1.023438 L 0.246094 -0.234375 C 0.476562 -0.0859375 0.890625 0.046875 1.332031 0.046875 Z M 1.332031 0.046875 "/></g></g></g></svg>